<svg xmlns="http://www.w3.org/2000/svg" xmlns:xlink="http://www.w3.org/1999/xlink" version="1.1" x="0px" y="0px" viewBox="0 0 100 100" enable-background="new 0 0 100 100" xml:space="preserve"><g><path d="M55.6,73.441c0-0.298-0.241-0.538-0.538-0.538c-0.298,0-0.538,0.24-0.538,0.538s0.24,0.538,0.538,0.538   c0.04,0,0.074-0.015,0.112-0.022c-0.229,0.354-0.656,0.478-1.039,0.464c-0.772-0.035-1.565-0.638-1.584-1.723   c-0.021-0.879,0.011-1.738,0.041-2.567c0.069-1.913,0.135-3.721-0.451-5.366c-0.372-1.144-1.452-2.067-2.313-1.979   c-0.326,0.035-0.888,0.247-0.999,1.289h0.002c0,0.003-0.002,0.005-0.002,0.008c0,0.298,0.24,0.539,0.538,0.539   s0.538-0.241,0.538-0.539c0-0.297-0.24-0.538-0.538-0.538c-0.047,0-0.089,0.016-0.134,0.026c0.131-0.303,0.336-0.487,0.622-0.518   c0.662-0.066,1.168,0.643,1.529,1.757c0.569,1.601,0.506,3.383,0.438,5.27c-0.03,0.834-0.062,1.696-0.041,2.582   c0.021,1.25,1.444,1.987,2.342,2.029c0.027,0.001,0.055,0.001,0.081,0.001c0.645,0,1.307-0.354,1.396-1.168l-0.016-0.002   C55.588,73.494,55.6,73.47,55.6,73.441z"></path><path d="M36.761,73.441c0-0.298,0.24-0.538,0.538-0.538c0.297,0,0.539,0.24,0.539,0.538s-0.242,0.538-0.539,0.538   c-0.04,0-0.075-0.015-0.113-0.022c0.229,0.354,0.656,0.478,1.039,0.464c0.773-0.035,1.566-0.638,1.585-1.723   c0.02-0.879-0.011-1.738-0.042-2.567c-0.069-1.913-0.135-3.721,0.452-5.366c0.372-1.144,1.451-2.067,2.313-1.979   c0.326,0.035,0.888,0.247,0.999,1.289h-0.002c0,0.003,0.002,0.005,0.002,0.008c0,0.298-0.239,0.539-0.538,0.539   c-0.297,0-0.538-0.241-0.538-0.539c0-0.297,0.241-0.538,0.538-0.538c0.048,0,0.091,0.016,0.135,0.026   c-0.131-0.303-0.337-0.487-0.623-0.518c-0.662-0.066-1.167,0.643-1.528,1.757c-0.569,1.601-0.507,3.383-0.438,5.27   c0.029,0.834,0.062,1.696,0.04,2.582c-0.021,1.25-1.444,1.987-2.342,2.029c-0.027,0.001-0.055,0.001-0.08,0.001   c-0.646,0-1.308-0.354-1.396-1.168l0.015-0.002C36.771,73.494,36.761,73.47,36.761,73.441z"></path><rect x="43.265" y="68.735" width="6.011" height="0.513"></rect><path d="M62.171,78.758c-0.913-2.517-1.703-4.689-0.852-6.982c0.153-0.409,0.041-0.871-0.28-1.167   c-0.203-0.187-0.465-0.284-0.729-0.284c-0.155,0-0.312,0.033-0.458,0.102c-0.355,0.168-0.705,0.253-1.038,0.253   c-1.818,0-3.579-2.724-3.842-5.946c-0.218-2.655,0.646-5.672,3.72-6.179c0.445-0.074,0.798-0.418,0.882-0.861   s-0.117-0.893-0.504-1.125c-0.409-0.244-0.663-0.508-0.696-0.725c-0.036-0.229,0.151-0.503,0.22-0.581   c0.074-0.085,0.149-0.196,0.194-0.302c0.134-0.312,3.236-7.693-0.17-13.64c-1.896-3.313-5.406-5.454-10.419-6.4V12.809l1.207-0.007   c0.166,0.656,0.756,1.145,1.464,1.145c0.835,0,1.514-0.678,1.514-1.515v-0.336c0-0.837-0.679-1.514-1.514-1.514   c-0.732,0-1.344,0.52-1.483,1.211l-1.188,0.006V8.604l1.207-0.007c0.166,0.656,0.756,1.144,1.464,1.144   c0.835,0,1.514-0.677,1.514-1.514V7.891c0-0.837-0.679-1.515-1.514-1.515c-0.732,0-1.344,0.52-1.483,1.212l-1.188,0.006V2.133   C48.199,1.508,47.387,1,46.383,1s-1.816,0.508-1.816,1.133v6.604h-1.145c-0.141-0.69-0.753-1.211-1.484-1.211   c-0.835,0-1.514,0.679-1.514,1.514v0.337c0,0.837,0.679,1.514,1.514,1.514c0.709,0,1.298-0.487,1.464-1.144h1.165v3.196h-1.145   c-0.141-0.691-0.753-1.212-1.484-1.212c-0.835,0-1.514,0.679-1.514,1.515v0.336c0,0.837,0.679,1.514,1.514,1.514   c0.709,0,1.298-0.487,1.464-1.144h1.165v20.945c-5.084,0.934-8.641,3.082-10.554,6.423c-3.406,5.946-0.304,13.328-0.17,13.64   c0.05,0.116,0.119,0.223,0.206,0.314c0.057,0.065,0.243,0.339,0.208,0.568c-0.034,0.217-0.288,0.48-0.696,0.725   c-0.387,0.232-0.589,0.682-0.505,1.125c0.085,0.443,0.438,0.787,0.884,0.861c3.074,0.507,3.936,3.523,3.72,6.179   c-0.265,3.223-2.024,5.946-3.844,5.946c-0.333,0-0.682-0.085-1.037-0.253c-0.147-0.068-0.303-0.102-0.458-0.102   c-0.266,0-0.525,0.098-0.729,0.284c-0.323,0.296-0.434,0.758-0.281,1.167c0.852,2.293,0.063,4.466-0.852,6.982   c-1.589,4.378-3.568,9.824,4.222,16.893c3.597,3.205,6.738,3.789,11.635,3.789c4.896,0,8.038-0.584,11.628-3.781   C65.74,88.582,63.762,83.136,62.171,78.758z M57.227,94.854c-3.375,3.007-6.336,3.51-10.911,3.51s-7.536-0.503-10.912-3.51   C23.887,84.403,34.992,78.597,32.32,71.4c0.516,0.243,1.018,0.354,1.495,0.354c5.172,0,7.771-13.031,0.298-14.263   c2.243-1.342,0.719-2.957,0.719-2.957s-6.625-15.429,9.734-18.556V62.78h1.749h0.135h1.749V36.009   c16.181,3.188,9.6,18.526,9.6,18.526s-1.524,1.615,0.718,2.957c-7.473,1.231-4.872,14.263,0.298,14.263   c0.479,0,0.979-0.111,1.496-0.354C57.638,78.597,68.744,84.403,57.227,94.854z"></path></g></svg>