<?xml version="1.0" encoding="utf-8"?><!DOCTYPE svg PUBLIC "-//W3C//DTD SVG 1.1//EN" "http://www.w3.org/Graphics/SVG/1.1/DTD/svg11.dtd"><svg version="1.1" xmlns:dc="http://purl.org/dc/elements/1.1/" xmlns:cc="http://creativecommons.org/ns#" xmlns:rdf="http://www.w3.org/1999/02/22-rdf-syntax-ns#" xmlns:svg="http://www.w3.org/2000/svg" xmlns:sodipodi="http://sodipodi.sourceforge.net/DTD/sodipodi-0.dtd" xmlns:inkscape="http://www.inkscape.org/namespaces/inkscape" xmlns="http://www.w3.org/2000/svg" xmlns:xlink="http://www.w3.org/1999/xlink" x="0px" y="0px" viewBox="0 30 100 40" enable-background="new 0 30 100 40" xml:space="preserve"><path d="M36.045,30c-4.005,0-7.612,2.358-11.514,4.307
	c-5.942,3.735-10.642,7.164-19.149,6.33c-1.395,0.189-3.078,0.142-4.005,0.392C0.45,41.277,0,41.431,0,42.333
	c0,1.704,1.326,2.544,3.942,2.544h15.52c4.147,0,7.504,0.437,10.012,1.24c2.508,0.803,4.742,1.674,6.759,2.676
	c2.017,1.001,4.051,1.939,6.07,2.74c1.991,0.791,4.532,1.164,7.635,1.175c0.043,0,0.081,0,0.125,0
	c3.103-0.011,5.645-0.384,7.635-1.175c2.019-0.801,4.053-1.739,6.07-2.74c2.017-1.002,4.25-1.873,6.758-2.676
	c2.508-0.803,5.865-1.24,10.013-1.24h15.52c2.616,0,3.942-0.841,3.942-2.544c0-0.902-0.449-1.056-1.377-1.305
	c-0.927-0.25-2.609-0.203-4.005-0.392c-8.507,0.834-13.207-2.595-19.149-6.33C71.566,32.358,67.96,30,63.955,30
	c-2.002,0-5.452,0.337-8.01,2.088c-2.359,1.723-0.002-0.015-3.066,2.61c-0.737,1.113-1.675,1.723-2.816,1.762
	c-0.042,0-0.083,0.001-0.125,0c-1.142-0.039-2.079-0.649-2.816-1.762c-3.064-2.625-0.707-0.887-3.066-2.61
	C41.497,30.337,38.047,30,36.045,30z M6.571,47.618c-1.854,0-2.816,0.403-2.816,1.305c0,0.501,0.347,0.814,1.001,0.914
	c0.654,0.1,3.254,1.044,7.259,3.132c6.007,4.176,7.596,5.125,12.015,8.353c4.005,2.088,6.796,3.815,12.015,6.265
	c4.757,1.713,7.983,2.403,13.893,2.414c0.046,0,0.079,0,0.125,0c5.91-0.011,9.136-0.701,13.893-2.414
	c5.219-2.449,8.01-4.177,12.015-6.265c4.419-3.228,6.008-4.177,12.015-8.353c4.006-2.088,6.605-3.032,7.26-3.132
	s1.001-0.412,1.001-0.914c0-0.902-0.962-1.305-2.815-1.305H83.98c-5.346,0-9.414,0.403-12.141,1.305s-4.967,1.884-6.821,2.936
	c-1.854,1.053-3.871,2.034-5.944,2.937c-2.051,0.893-5.044,1.36-9.012,1.37c-0.045,0-0.081,0-0.125,0
	c-3.968-0.01-6.96-0.478-9.011-1.37c-2.074-0.902-4.091-1.884-5.945-2.937c-1.854-1.052-4.095-2.034-6.821-2.936
	s-6.794-1.305-12.14-1.305H6.571L6.571,47.618z"></path></svg>