<?xml version="1.0" encoding="utf-8"?><!DOCTYPE svg PUBLIC "-//W3C//DTD SVG 1.1//EN" "http://www.w3.org/Graphics/SVG/1.1/DTD/svg11.dtd"><svg version="1.1" xmlns="http://www.w3.org/2000/svg" xmlns:xlink="http://www.w3.org/1999/xlink" x="0px" y="0px" viewBox="0 0 100 100" enable-background="new 0 0 100 100" xml:space="preserve"><path d="M96.359,15.578c0.483,0.364-1.021,4.662,1.617,4.046c-0.928,2.6-3.319,2.664-3.641,5.257
	c-0.48,3.892,3.684,6.832,5.663,9.305c-1.108,4.01-6.571,4.383-9.306,1.617c-2.699,0.595-5.217-0.259-7.278,0.81
	c-4.985,2.583-2.819,11.989-4.854,18.202c-1.859,5.68-5.606,6.752-6.877,10.517c0.789,3.487-0.203,6.599,0.404,9.306
	c0.652,2.9,3.829,4.34,3.643,7.28c-0.652,0.604-2.029-0.351-3.643,0c-0.773-2.058-1.865-3.799-3.236-5.259
	c-0.218-2.612,0.471-6.133-0.402-8.09c-3.342,4.345-0.76,11.592,2.427,14.158c-5.765,2.053-7.634-5.22-6.067-10.518
	c-1.672-2.777-4.115-4.784-3.641-9.708c-3.398-0.585-6.609,1.216-10.111,1.616c-9.477,1.09-19.491-1.128-27.911-2.021
	c-1.769,3.436-2.413,8.178-1.618,12.54c0.762,4.169,5.063,6.873,6.067,9.708c-9.663,1.771-7.412-10.852-12.539-14.562
	c0.238-2.998,0.995-5.479,0.81-8.899c-1.693,3.521-5.769,8.073-6.067,12.943c-0.226,3.677,2.116,5.921,3.236,9.304
	c-1.485,0-2.967,0-4.45,0c-0.71-2.271-0.851-3.328-0.81-6.473c0.046-3.55-1.861-8.068-1.617-10.921
	c0.221-2.579,2.68-4.815,2.831-7.279c0.17-2.768-1.577-6.098-2.428-8.899c-0.849-2.803-1.473-5.962-3.64-7.686
	c-0.87,12.36,2.372,24.366,0.809,34.785c-3.236-1.14-2.022-5.468-2.022-8.091c0-5.69-0.108-10.68-0.404-16.584
	c-0.434-8.685-2.702-17.604,0-22.649c12.972-4.323,29.737-0.416,47.326-1.214c8.604-0.391,18.312-0.407,23.46-1.618
	c2.501-0.589,4.492-2.761,7.281-2.022c-0.003-2.021-2.104-3.644-0.811-5.663c2.035,0.122,3.016,1.3,4.854,1.618
	c2.467-1.983,3.336-5.564,8.494-4.854c-0.779,1.513-4.063,0.522-3.642,3.236C91.165,19.545,95.564,18.295,96.359,15.578z"></path></svg>