<svg xmlns="http://www.w3.org/2000/svg" xmlns:xlink="http://www.w3.org/1999/xlink" version="1.1" x="0px" y="0px" viewBox="0 0 100 100" enable-background="new 0 0 100 100" xml:space="preserve"><g><g><path d="M99.52,69.461H78.33c-3.693,0-6.699-2.998-6.699-6.691c0-3.703,3.006-6.695,6.699-6.695H99.52V69.461z"></path><path d="M53.836,74.895c0-1.498,1.215-2.715,2.711-2.715H99.52v10.848H53.836V74.895z"></path><ellipse cx="62.035" cy="61.381" rx="8.094" ry="8.08"></ellipse><g><path d="M86.18,44.536c-0.371,0-0.742-0.141-1.023-0.425l-8.322-8.32c-0.564-0.566-0.564-1.481,0-2.046     c0.566-0.565,1.48-0.565,2.047,0l8.322,8.321c0.564,0.565,0.564,1.481,0,2.045C86.92,44.395,86.549,44.536,86.18,44.536     L86.18,44.536z"></path></g><path d="M92.076,5.745l-8.064,8.065c-0.406,0.407-0.637,0.96-0.637,1.535v9.929l-4.431,4.431l-0.579-0.579    c-0.479-0.479-1.26-0.479-1.74,0l-4.408,4.408c-0.48,0.48-0.48,1.263,0,1.741l4.408,4.409c0.48,0.479,1.262,0.479,1.74,0    l0.158-0.156l-2.713-2.714c-0.547-0.547-0.848-1.274-0.848-2.047c0-0.772,0.301-1.499,0.848-2.046    c0.549-0.547,1.275-0.848,2.047-0.848c0.773,0,1.5,0.3,2.047,0.848l2.713,2.714l0.158-0.159c0.479-0.478,0.479-1.261,0-1.741    l-0.76-0.76l5.064-5.065c0.408-0.407,0.637-0.96,0.637-1.536v-9.928l7.43-7.43L92.076,5.745z"></path><circle cx="34.317" cy="10.335" r="10.335"></circle><path d="M71.252,51.48l-0.893-1.15c-0.146-0.188-0.387-0.26-0.605-0.207l-2.002-2.556l-10.564-8.631    c-0.553-0.449-1.365-0.366-1.814,0.187c-0.299,0.368-0.341,0.845-0.188,1.259H32.824l-6.579-20.63    c-0.778-2.442-3.388-3.793-5.835-3.013c-0.927,0.296-1.695,0.857-2.251,1.572c-0.056,0.056-0.12,0.097-0.173,0.155    C6.388,31.104,0,47.516,0,64.68c0,1.057,0.367,2.018,0.959,2.797c0.819,1.322,2.271,2.211,3.94,2.211h23.476v25.67    c0,2.562,2.078,4.643,4.644,4.643c2.563,0,4.643-2.08,4.643-4.643V65.045c0-2.566-2.08-4.645-4.643-4.645H21.704    c0.429-4.762,1.57-9.383,3.392-13.747c0.677,1.802,2.395,3.015,4.335,3.015h27.732c2.25,0,4.124-1.602,4.55-3.727l4.097,3.331    l1.871,2.387l-0.045,0.035c-0.102,0.08-0.115,0.211-0.074,0.326l-0.676,1.148l0.756,0.975l1.287-0.371    c0.102,0.057,0.219,0.074,0.316-0.002l0.756-0.588c0.008-0.004,0.016-0.006,0.023-0.01l1.123-0.873    C71.402,52.104,71.449,51.734,71.252,51.48z"></path></g></g></svg>