<svg xmlns="http://www.w3.org/2000/svg" xmlns:xlink="http://www.w3.org/1999/xlink" version="1.1" x="0px" y="0px" viewBox="0 0 100 100" enable-background="new 0 0 100 100" xml:space="preserve"><g><rect x="-192" width="185" height="99"></rect><rect y="-36" width="100" height="30"></rect><text transform="matrix(1 0 0 1 66 -19.5)" fill="#000000" font-family="'Helvetica'" font-size="2.4">http://thenounproject.com</text><text transform="matrix(1 0 0 1 7.166 -24.5)"><tspan x="0" y="0" fill="#000000" font-family="'Helvetica-Bold'" font-size="6.1578">The Noun Project</tspan><tspan x="1.12" y="4.8" fill="#000000" font-family="'Helvetica-Bold'" font-size="4">Icon Template</tspan></text><text transform="matrix(1 0 0 1 -178.5 10.5)" fill="#000000" font-family="'Helvetica-Bold'" font-size="6.1578">Reminders</text><line fill="#000000" stroke="#FFFFFF" stroke-miterlimit="10" x1="8" y1="-14.5" x2="18" y2="-14.5"></line><line fill="#000000" stroke="#FFFFFF" stroke-miterlimit="10" x1="-179" y1="16.5" x2="-162" y2="16.5"></line><g><g><g><rect x="-170.802" y="31.318" fill="#000000" width="8.721" height="8.642"></rect><path fill="#000000" d="M-164.455,42.312h4.747v-4.703h-4.747V42.312z M-159.266,42.749h-5.63V37.17h5.63V42.749      L-159.266,42.749z M-166.221,44.062h8.279v-8.203h-8.279V44.062L-166.221,44.062z M-157.5,44.5h-9.163v-9.079h9.163V44.5      L-157.5,44.5z"></path><polygon fill="#000000" points="-166.149,44.133 -166.292,43.991 -158.013,35.787 -157.871,35.929     "></polygon></g></g></g><rect x="-179" y="58" fill="none" width="35" height="32.5"></rect><text transform="matrix(1 0 0 1 -179 60.1299)"><tspan x="0" y="0" fill="#000000" font-family="'Helvetica-Bold'" font-size="3">Strokes</tspan><tspan x="0" y="5" fill="#000000" font-family="'Helvetica'" font-size="2.4">Try to keep strokes at 4px</tspan><tspan x="0" y="10" fill="#000000" font-family="'Helvetica'" font-size="2.4">Minimum stroke weight is 2px</tspan><tspan x="0" y="14.5" fill="#000000" font-family="'Helvetica'" font-size="2.4">For thicker strokes use even </tspan><tspan x="0" y="17.5" fill="#000000" font-family="'Helvetica'" font-size="2.4">numbers: 6px, 8px etc.</tspan><tspan x="0" y="22" fill="#000000" font-family="'Helvetica-Bold'" font-size="2.4">Remember to expand strokes </tspan><tspan x="0" y="25" fill="#000000" font-family="'Helvetica-Bold'" font-size="2.4">before saving as an SVG </tspan></text><rect x="-136.5" y="58" fill="none" width="35" height="32.5"></rect><text transform="matrix(1 0 0 1 -136.5 60.1299)"><tspan x="0" y="0" fill="#000000" font-family="'Helvetica-Bold'" font-size="3">Size</tspan><tspan x="0" y="5" fill="#000000" font-family="'Helvetica'" font-size="2.4">Cannot be wider or taller than </tspan><tspan x="0" y="8.5" fill="#000000" font-family="'Helvetica'" font-size="2.4">100px (artboard size)</tspan><tspan x="0" y="13.5" fill="#000000" font-family="'Helvetica'" font-size="2.4">Scale your icon to fill as much of </tspan><tspan x="0" y="16.5" fill="#000000" font-family="'Helvetica'" font-size="2.4">the artboard as possible</tspan></text><rect x="-94" y="58" fill="none" width="35" height="32.5"></rect><text transform="matrix(1 0 0 1 -94 60.1299)"><tspan x="0" y="0" fill="#000000" font-family="'Helvetica-Bold'" font-size="3">Ungroup</tspan><tspan x="0" y="5" fill="#000000" font-family="'Helvetica'" font-size="2.4">If your design has more than one </tspan><tspan x="0" y="8" fill="#000000" font-family="'Helvetica'" font-size="2.4">shape, make sure to ungroup</tspan></text><rect x="-50" y="58" fill="none" width="35" height="32.5"></rect><text transform="matrix(1 0 0 1 -50 60.1299)"><tspan x="0" y="0" fill="#000000" font-family="'Helvetica-Bold'" font-size="3">Save as</tspan><tspan x="0" y="5" fill="#000000" font-family="'Helvetica'" font-size="2.4">Save as .SVG and make sure “Use </tspan><tspan x="0" y="8" fill="#000000" font-family="'Helvetica'" font-size="2.4">Artboards” is checked</tspan></text><text transform="matrix(1.0074 0 0 1 -125.542 30.5933)" fill="#000000" font-family="'Helvetica'" font-size="2.5731">100px</text><text transform="matrix(1.0074 0 0 1 -41 39)" fill="#000000" font-family="'Helvetica-Bold'" font-size="5.1462">.SVG</text><rect x="-126.514" y="34.815" fill="#000000" width="10.261" height="10.185"></rect><rect x="-126.477" y="31.766" fill="#000000" width="0.522" height="2.337"></rect><rect x="-116.813" y="31.766" fill="#000000" width="0.523" height="2.337"></rect><rect x="-127" y="32.337" fill="#000000" width="11.233" height="0.572"></rect><g><rect x="-83.805" y="33.844" fill="#000000" width="10.305" height="10.156"></rect><rect x="-76.809" y="28.707" fill="#000000" width="3.308" height="3.261"></rect></g><rect x="-178.5" y="22.5" fill="#000000" stroke="#FFFFFF" stroke-miterlimit="10" width="30" height="30"></rect><rect x="-136.5" y="22.5" fill="#000000" stroke="#FFFFFF" stroke-miterlimit="10" width="30" height="30"></rect><rect x="-93.5" y="22.5" fill="#000000" stroke="#FFFFFF" stroke-miterlimit="10" width="30" height="30"></rect><rect x="-49.5" y="22.5" fill="#000000" stroke="#FFFFFF" stroke-miterlimit="10" width="30" height="30"></rect></g><g><path d="M95.69,97.816c-2.199,0-3.176-0.511-4.307-1.103c-1.137-0.597-2.425-1.27-4.841-1.27c-0.012,0-0.025,0-0.037,0   c-1.938,0.005-3.127,0.65-4.177,1.221c-1.093,0.592-2.124,1.151-4.183,1.151c-1.652,0-2.452-0.443-3.463-1.005   c-1.101-0.61-2.341-1.298-4.641-1.361c-0.021-0.001-0.04-0.006-0.063-0.006c-0.052,0-0.098,0.001-0.148,0.002   c-0.046-0.001-0.089-0.002-0.136-0.002c-0.02,0-0.038,0.005-0.057,0.006c-2.505,0.058-3.814,0.739-4.972,1.345   c-1.053,0.553-1.958,1.034-3.864,1.021c-1.391-0.003-2.165-0.423-3.148-0.956c-1.223-0.664-2.608-1.416-5.219-1.416   c-2.214,0-3.438,0.679-4.517,1.278c-1.058,0.587-1.971,1.094-3.934,1.094c-2.198,0-3.175-0.511-4.305-1.103   c-1.143-0.599-2.439-1.279-4.878-1.27c-1.938,0.005-3.128,0.65-4.178,1.221c-1.074,0.583-2.092,1.132-4.082,1.151   c-1.43-0.062-2.298-0.363-3.102-0.752c-0.152-0.081-0.305-0.166-0.462-0.253c-1.154-0.643-2.463-1.367-4.988-1.367   c-0.037,0-0.072,0.008-0.108,0.011c-1.931,0.009-3.117,0.65-4.164,1.221c-1.093,0.592-2.125,1.151-4.184,1.151   c-1.651,0-2.451-0.444-3.463-1.005c-1.153-0.642-2.462-1.367-4.987-1.367C0.486,95.455,0,95.941,0,96.54   c0,0.601,0.486,1.086,1.086,1.086c1.962,0,2.875,0.509,3.933,1.095C6.098,99.32,7.322,100,9.536,100   c2.61,0,3.996-0.753,5.219-1.416c0.981-0.533,1.757-0.954,3.146-0.958c0.011,0,0.022,0,0.032,0c1.882,0,2.787,0.474,3.833,1.022   c0.228,0.12,0.461,0.241,0.708,0.361c0.959,0.506,2.118,0.979,3.966,0.979c0.024,0,0.046-0.001,0.069-0.001   c0.185,0.007,0.372,0.012,0.569,0.012c0.102,0,0.198-0.019,0.292-0.045c2.026-0.154,3.22-0.802,4.289-1.382   c0.981-0.533,1.756-0.953,3.146-0.957c0.011,0,0.021,0,0.031,0c1.882,0,2.786,0.474,3.833,1.021   c1.209,0.634,2.581,1.352,5.313,1.352c2.526,0,3.834-0.727,4.988-1.367c1.012-0.563,1.811-1.006,3.463-1.006   c2.06,0,3.09,0.561,4.184,1.154c1.05,0.568,2.239,1.213,4.178,1.219c0.011,0,0.023,0,0.037,0c2.416,0,3.704-0.675,4.84-1.27   c1.104-0.577,2.064-1.077,4.156-1.101c1.867,0.023,2.766,0.519,3.798,1.092c1.079,0.6,2.302,1.278,4.518,1.278   c2.609,0,3.996-0.753,5.219-1.416c0.982-0.533,1.758-0.953,3.147-0.957c0.01,0,0.021,0,0.031,0c1.881,0,2.786,0.474,3.832,1.021   c1.21,0.634,2.581,1.352,5.314,1.352c0.6,0,1.087-0.485,1.087-1.087C96.777,98.303,96.29,97.816,95.69,97.816z"></path><path d="M95.69,92.186c-2.199,0-3.177-0.512-4.307-1.104c-1.137-0.595-2.426-1.27-4.842-1.27c-0.012,0-0.024,0-0.036,0   c-1.938,0.006-3.127,0.65-4.178,1.22c-1.092,0.594-2.124,1.153-4.183,1.153c-1.651,0-2.451-0.443-3.462-1.005   c-1.101-0.611-2.341-1.298-4.641-1.361c-0.021-0.002-0.04-0.007-0.063-0.007c-0.052,0-0.099,0.002-0.149,0.003   c-0.045-0.001-0.088-0.003-0.136-0.003c-0.019,0-0.037,0.005-0.056,0.006c-2.506,0.057-3.814,0.738-4.973,1.346   c-0.087,0.045-0.172,0.09-0.257,0.135c-0.352-1.595-1.166-3.022-2.112-4.375c-0.552-0.788-1.154-1.542-1.776-2.281   c0.071-0.513,0.141-1.027,0.217-1.54c0.248-1.706,0.357-3.448,0.793-5.105c0.313-1.194,1.059-2.272,1.612-3.4   c1.355-2.768,2.628-5.579,4.1-8.28c0.716-1.313,1.696-2.529,2.751-3.595c1.565-1.579,3.341-2.945,4.95-4.482   c0.895-0.854,1.415-1.954,1.339-3.263c-0.037-0.604-0.18-0.843-0.846-0.58c-1.708,0.673-3.445,1.271-5.163,1.92   c-2.643,0.999-5.359,1.698-8.187,1.798c-0.543,0.018-1.548,0.167-2.127,0.364c-0.577,0.196-0.433-0.279-0.406-0.323   c0.51-0.769,1.413-0.85,2.231-1.259c1.355-0.679,2.617-1.659,3.709-2.727c2.156-2.107,4.209-4.325,6.221-6.572   c0.781-0.873,0.506-1.41-0.643-1.651c-0.178-0.038-0.37-0.019-0.555-0.013c-2.032,0.062-3.907,0.712-5.713,1.582   c-1.705,0.821-3.396,1.059-5.262,0.459c-1.452-0.466-2.986-0.851-4.508-0.897c-11.382-0.343-18.897,8.111-22.854,12.878   c-1.317,1.586-2.244,2.718-3.268,4.487l-1.62,0.857c-4.713,2.479-8.952,5.266-12.556,8.95c-1.217,1.244-2.047,2.687-2.442,4.375   c-0.402,1.715,1.068,3.537,2.811,3.58c0.785,0.019,1.595,0.074,2.343,0.289c1.624,0.467,4.518,1.493,4.744,1.556   c0.646,0.181,0.972,0.188,0.972,0.188c-0.01,2.417,0.032,4.834,0.349,7.229c-0.023-0.011-0.046-0.021-0.07-0.033   c-0.153-0.081-0.307-0.166-0.466-0.254c-1.154-0.642-2.462-1.368-4.988-1.368c-0.037,0-0.072,0.008-0.108,0.011   c-1.931,0.007-3.117,0.652-4.164,1.22c-1.093,0.594-2.125,1.153-4.184,1.153c-1.651,0-2.45-0.443-3.463-1.007   c-1.153-0.64-2.462-1.366-4.987-1.366C0.486,89.823,0,90.309,0,90.91c0,0.599,0.486,1.086,1.086,1.086   c1.962,0,2.875,0.506,3.933,1.094c1.079,0.6,2.302,1.28,4.517,1.28c2.61,0,3.996-0.754,5.219-1.418   c0.981-0.531,1.757-0.953,3.147-0.956c0.01,0,0.02,0,0.031,0c1.881,0,2.786,0.474,3.833,1.021c0.229,0.12,0.465,0.244,0.713,0.364   c0.96,0.505,2.117,0.978,3.963,0.978c0.024,0,0.046-0.001,0.069-0.001c0.185,0.007,0.372,0.013,0.569,0.013   c0.102,0,0.198-0.021,0.292-0.046c2.026-0.155,3.22-0.802,4.289-1.383c0.981-0.532,1.756-0.953,3.146-0.956c0.01,0,0.02,0,0.03,0   c1.882,0,2.787,0.473,3.833,1.021c1.209,0.635,2.581,1.352,5.313,1.352c2.526,0,3.834-0.727,4.988-1.368   c1.012-0.561,1.811-1.005,3.463-1.005c2.06,0,3.09,0.56,4.184,1.151c1.05,0.57,2.239,1.216,4.177,1.222c0.012,0,0.023,0,0.037,0   c2.417,0,3.705-0.675,4.841-1.271c1.104-0.578,2.063-1.078,4.155-1.101c1.868,0.022,2.766,0.519,3.798,1.092   c1.08,0.599,2.303,1.279,4.518,1.279c2.609,0,3.997-0.753,5.22-1.417c0.982-0.532,1.758-0.953,3.146-0.956c0.011,0,0.021,0,0.031,0   c1.881,0,2.786,0.473,3.832,1.021c1.211,0.635,2.581,1.352,5.315,1.352c0.6,0,1.087-0.486,1.087-1.086   C96.777,92.672,96.29,92.186,95.69,92.186z M54.382,54.707c-0.573,0-1.039-0.465-1.039-1.039s0.466-1.041,1.039-1.041   c0.575,0,1.041,0.467,1.041,1.041S54.957,54.707,54.382,54.707z"></path><path d="M99.623,3.813C96.327,1.703,91.698,0.842,90,1c-0.453,0.043-0.639,0.473-0.639,0.473C87.75,5.14,83.928,5.869,81.15,6.924   C78.372,7.98,75.51,9.926,75.51,9.926v0.001c-0.078,0.04-0.155,0.086-0.225,0.145l-6.708,5.576   c-0.495,0.413-0.562,1.148-0.15,1.644c0.412,0.496,1.147,0.563,1.643,0.151l5.159-4.289c-0.142,0.312-0.339,0.604-0.339,0.604   l-3.199,4.524c-0.016,0.024-0.029,0.048-0.046,0.074c-0.197,0.229-0.328,0.519-0.354,0.843l-0.876,4.498   c-0.064,0.808,0.539,1.517,1.347,1.582c0.809,0.064,1.516-0.539,1.58-1.347l0.877-4.499c0-0.001,0-0.001,0-0.002l2.73-3.864   c0.245-0.346,0.608-0.134,0.404,0.172c-0.203,0.306-1.851,2.954-1.851,2.954c-0.22,0.311-0.395,0.677-0.361,1.027   c0.033,0.351,0.06,0.413,0.113,0.625l0.65,3.446c0.025,0.102,0.063,0.2,0.108,0.291c0.049,0.208,0.143,0.407,0.282,0.583   l1.545,1.868c0.53,0.668,1.515,0.769,2.202,0.227c0.686-0.543,0.811-1.527,0.28-2.195l-1.366-1.652l-0.566-3.007   c0,0,2.032-2.843,2.736-3.871c0.468-0.685,0.923-0.138,0.778,0.213c-0.003,0.007-0.005,0.012-0.008,0.02l-1.226,2.909   c-0.087,0.209-0.131,0.426-0.136,0.64c-0.079,0.383-0.022,0.781,0.195,1.12l1.729,3.151c0.133,0.207,0.311,0.366,0.515,0.481   c0.086,0.063,0.182,0.117,0.283,0.161l2.563,1.288c-0.787,2.325-1.421,5.765-1.652,9.8c-0.415,7.273,0.624,12.278,2.252,12.372   c0.013,0.001,0.023-0.002,0.034-0.001c0.012,0.001,0.023,0.004,0.035,0.004c1.628,0.094,3.231-4.761,3.646-12.034   c0.24-4.23,0.031-7.854-0.519-10.256c0.344,0.071,0.709,0.027,1.038-0.153c0,0,2.25-1.064,3.297-1.564   c1.046-0.5,1.562-0.716,1.688-1.531l0.452-3.234c0-0.001,0.001-0.002,0.001-0.002c0.386-2.762,2.377-4.215,1.678-7.048   c-0.894-3.614,1.881-7.667,1.881-7.667C99.929,4.396,99.941,4.016,99.623,3.813z M86.17,44.485c-0.435,0-0.788-0.354-0.788-0.788   c0-0.435,0.354-0.788,0.788-0.788s0.788,0.353,0.788,0.788C86.958,44.132,86.604,44.485,86.17,44.485z M91.936,18.926l-0.407,2.918   l-2.089,0.98c0.087-0.144,0.183-0.311,0.286-0.511c0.787-1.516,1.154-3.313,0.996-3.61c-0.269-0.5-1.182,1.089-2.412,2.177   c-0.07,0.061-0.152,0.127-0.255,0.106c-0.104,0.008-0.18-0.066-0.241-0.135c-1.102-1.22-1.826-2.902-2.148-2.437   c-0.191,0.277-0.03,2.104,0.578,3.7c0.116,0.304,0.223,0.537,0.311,0.731l-1.089-0.548c-0.02-0.035-0.038-0.069-0.059-0.103   l-1.221-2.226l0.251-0.597l0,0c0.251-0.597,1.102-2.836,2.853-3.698c1.752-0.862,3.212-0.236,3.694,0.167   C92.498,17.103,91.936,18.922,91.936,18.926z"></path></g></svg>