<svg xmlns="http://www.w3.org/2000/svg" xmlns:xlink="http://www.w3.org/1999/xlink" version="1.1" x="0px" y="0px" viewBox="0 0 100 70.619" enable-background="new 0 0 100 70.619" xml:space="preserve"><path d="M89.116,61.954c1.53-4.194,3.255-11.071,4.641-18.929s2.116-14.91,2.114-19.375c0.05-0.039,0.102-0.074,0.152-0.114  c3.054-2.391,4.697-5.664,3.671-7.309c-0.985-1.583-4.081-1.08-7.032,1.087c-5.861-2.767-20.479-6.566-37.793-9.619  C37.554,4.644,22.519,3.214,16.065,3.81c-2.032-3.046-4.77-4.577-6.237-3.428c-1.526,1.195-1.102,4.833,0.95,8.124  c0.034,0.055,0.07,0.105,0.105,0.159c-1.53,4.194-3.255,11.071-4.641,18.929c-1.386,7.858-2.116,14.91-2.113,19.375  c-0.051,0.039-0.103,0.074-0.153,0.113c-3.053,2.392-4.697,5.664-3.671,7.31c0.986,1.582,4.082,1.079,7.033-1.088  c5.861,2.767,20.479,6.565,37.793,9.619c17.315,3.053,32.35,4.482,38.804,3.887c2.032,3.046,4.769,4.577,6.236,3.428  c1.527-1.195,1.102-4.832-0.949-8.124C89.188,62.058,89.151,62.007,89.116,61.954z"></path></svg>