<svg xmlns="http://www.w3.org/2000/svg" xmlns:xlink="http://www.w3.org/1999/xlink" version="1.1" x="0px" y="0px" viewBox="0 0 63.158 100" enable-background="new 0 0 63.158 100" xml:space="preserve"><path d="M55.116,68.673c-6.077,2.023-14.374,3.255-23.537,3.257C17.82,71.905,6.068,69.209,0.726,65.044  C0.47,64.843,0.229,64.635,0,64.422v10.389c0.363,0.66,0.953,1.334,1.812,2.014c1.542,1.219,3.871,2.373,6.785,3.342  c5.828,1.945,13.979,3.168,22.982,3.167c13.493,0.023,25.121-2.803,29.766-6.509c0.86-0.68,1.451-1.354,1.813-2.015V64.422  c-0.229,0.213-0.47,0.421-0.727,0.622C60.645,66.449,58.156,67.658,55.116,68.673z"></path><path d="M31.579,0C14.139,0,0,4.713,0,10.526v11.653c0.363,0.66,0.953,1.335,1.812,2.014c1.542,1.218,3.871,2.373,6.785,3.342  c5.828,1.945,13.979,3.168,22.982,3.166c13.493,0.025,25.121-2.802,29.766-6.508c0.86-0.68,1.451-1.355,1.813-2.016V10.526  C63.158,4.713,49.02,0,31.579,0z M53.077,15.473c-5.704,1.901-13.338,2.948-21.498,2.948c-8.16,0-15.794-1.047-21.498-2.948  c-0.38-0.127-0.741-0.254-1.086-0.382c0.221-0.079,0.441-0.157,0.67-0.233c5.833-1.945,13.616-3.016,21.914-3.016  c8.297,0,16.08,1.071,21.913,3.016c0.229,0.076,0.449,0.155,0.67,0.233C53.817,15.219,53.457,15.346,53.077,15.473z M55.953,14.36  c-5.791-2.341-14.56-3.833-24.374-3.833c-9.814,0-18.583,1.492-24.374,3.833c-3.546-1.605-4.573-3.141-4.573-3.833  c0-0.852,1.557-2.982,7.45-4.947c5.703-1.901,13.338-2.948,21.498-2.948c8.16,0,15.794,1.047,21.498,2.948  c5.893,1.964,7.449,4.095,7.449,4.947C60.526,11.219,59.499,12.754,55.953,14.36z"></path><path d="M55.117,29.2c-6.078,2.023-14.375,3.254-23.538,3.256c-13.759-0.024-25.511-2.72-30.853-6.885  C0.47,25.37,0.229,25.162,0,24.949v10.388c0.363,0.66,0.953,1.335,1.812,2.014c1.542,1.218,3.871,2.374,6.785,3.342  c5.828,1.945,13.979,3.168,22.982,3.167c13.493,0.024,25.121-2.802,29.767-6.509c0.859-0.679,1.45-1.354,1.813-2.015V24.948  c-0.228,0.213-0.47,0.421-0.727,0.623C60.645,26.976,58.156,28.184,55.117,29.2z"></path><path d="M55.117,42.357c-6.078,2.023-14.375,3.255-23.538,3.256c-13.759-0.024-25.511-2.72-30.853-6.885  C0.47,38.527,0.229,38.32,0,38.107v10.388c0.363,0.659,0.953,1.334,1.812,2.013c1.542,1.218,3.871,2.374,6.785,3.342  c5.828,1.945,13.979,3.169,22.982,3.167c13.493,0.024,25.121-2.803,29.767-6.509c0.859-0.679,1.45-1.354,1.813-2.015V38.106  c-0.228,0.213-0.47,0.421-0.727,0.623C60.645,40.134,58.156,41.342,55.117,42.357z"></path><path d="M55.117,55.516c-6.078,2.022-14.375,3.255-23.538,3.256C17.82,58.747,6.068,56.051,0.726,51.887  C0.47,51.686,0.229,51.478,0,51.265v10.388c0.363,0.66,0.953,1.335,1.812,2.014c1.542,1.219,3.871,2.374,6.785,3.343  c5.828,1.945,13.979,3.168,22.982,3.167c13.493,0.023,25.121-2.803,29.767-6.51c0.859-0.679,1.45-1.354,1.813-2.014V51.264  c-0.228,0.213-0.47,0.421-0.727,0.623C60.645,53.292,58.156,54.5,55.117,55.516z"></path><path d="M55.117,81.831c-6.078,2.023-14.375,3.255-23.538,3.257C17.82,85.063,6.068,82.366,0.726,78.202  C0.47,78.001,0.229,77.793,0,77.58v11.894C0,95.287,14.139,100,31.579,100c17.441,0,31.579-4.713,31.579-10.526V77.579  c-0.228,0.214-0.47,0.421-0.727,0.623C60.645,79.607,58.156,80.815,55.117,81.831z"></path></svg>