<svg xmlns="http://www.w3.org/2000/svg" xmlns:xlink="http://www.w3.org/1999/xlink" version="1.1" x="0px" y="0px" viewBox="0 0 37.207 100" enable-background="new 0 0 37.207 100" xml:space="preserve"><circle cx="18.119" cy="8.159" r="8.159"></circle><path d="M18.601,26.479c2.884,0,4.313-1.017,4.471-8.462l-8.939-0.004C14.291,25.462,15.721,26.479,18.601,26.479z"></path><path d="M27.684,18.02l-2.349-0.001c-0.146,7.41-2.133,10.573-5.619,10.573v11.721c1.019,0.437,1.735,1.452,1.735,2.63  c0,1.588-1.267,2.89-2.85,2.89c-1.581,0-2.845-1.269-2.845-2.851c0-1.182,0.716-2.196,1.735-2.636V28.632  c-3.496,0-5.481-3.177-5.619-10.62l-2.476-0.001C3.619,18.012,0,22.723,0,28.6v25.049c0,4.869,6.434,4.869,6.434,0V29.27h2.048  L8.473,95.426c0,2.524,2.05,4.574,4.574,4.574c2.529,0,4.576-2.05,4.576-4.574l0.004-38.374h2.037L19.65,95.426  c0,2.524,2.049,4.574,4.574,4.574s4.572-2.05,4.572-4.574l0.02-66.158h2.008v24.381c0,4.904,6.396,4.904,6.383,0v-24.9  C37.207,23.33,34.023,18.02,27.684,18.02z"></path></svg>