<svg xmlns="http://www.w3.org/2000/svg" xmlns:xlink="http://www.w3.org/1999/xlink" version="1.1" x="0px" y="0px" viewBox="0 0 100 100" enable-background="new 0 0 100 100" xml:space="preserve"><g><path d="M91.16,70.654c-3.278-1.781-19.998-10.295-40.087-10.295c-21.967,0-39.905,10.172-40.656,10.606   c-2.645,1.521-3.936,4.622-3.148,7.565s3.453,4.991,6.5,4.991h74.598c0.019,0.004,0.036,0,0.048,0c3.718,0,6.729-3.009,6.729-6.726   C95.144,74.059,93.511,71.706,91.16,70.654z M24.289,74.158c-3.156,0.836-6.631-0.905-9.221-3.174   c3.66-1.68,9.257-3.927,16.103-5.664C30.245,69.015,27.938,73.191,24.289,74.158z M51.066,74.452   c-5.775,0-10.465-7.172-10.465-10.568c0-0.142,0.055-0.279,0.069-0.419c3.33-0.459,6.802-0.751,10.403-0.751   c3.603,0,7.096,0.282,10.422,0.741C61.122,67.066,56.599,74.452,51.066,74.452z M77.848,74.158   c-3.652-0.967-5.96-5.144-6.881-8.842c6.841,1.735,12.442,3.986,16.105,5.666C84.482,73.25,81.004,74.996,77.848,74.158z"></path><g><path d="M37.463,37.26c-0.573-1.251-1.292-2.419-2.125-3.46c-0.243-0.377-0.464-0.675-0.806-1.048    C32.853,30.602,32,28.182,32,25.556c0-2.777,1.041-5.454,2.996-7.73c0.232-0.267,0.323-0.653,0.272-1.154    c-0.04-0.368-0.159-0.859-0.547-1.166c-0.45-0.365-1.07-0.733-1.879-0.651c-0.889,0.051-1.411,0.44-1.715,0.785    c-1.187,1.429-2.115,2.975-2.761,4.589l-0.145,0.361c-0.609,1.636-0.914,3.308-0.914,4.966c0,3.21,1.077,6.343,3.163,9.105    c0.16,0.185,0.315,0.386,0.464,0.584l0.504,0.655c0.152,0.249,0.247,0.359,0.323,0.434l0.09,0.092    c0.755,1.07,1.292,2.186,1.64,3.412c0.323,1.187,0.457,2.238,0.424,3.111c-0.007,0.049-0.011,0.103-0.011,0.16    c-0.007,0.014-0.007,0.027-0.007,0.042c-0.011,2.584-0.91,5.017-2.593,7.148c-0.044,0.047-0.087,0.1-0.127,0.154    c-0.029,0.034-0.058,0.068-0.08,0.112c-0.033,0.053-0.073,0.107-0.127,0.167c-0.04,0.045-0.076,0.098-0.105,0.15    c-0.261,0.35-0.367,0.722-0.327,1.09c0.029,0.305,0.156,0.584,0.377,0.835c0.054,0.092,0.127,0.172,0.225,0.239    c0.065,0.079,0.214,0.233,0.297,0.29c0.425,0.271,0.889,0.408,1.393,0.408c0.102,0,0.2-0.008,0.305-0.017    c0.649-0.019,1.186-0.258,1.658-0.766c0.733-0.854,1.313-1.667,1.774-2.478c1.408-2.338,2.068-4.77,2.031-7.421    c0-0.934-0.069-1.832-0.236-2.837C38.116,39.242,37.819,38.27,37.463,37.26z M32.385,35.633L32.385,35.633v0.002V35.633z"></path><path d="M55.637,37.3c-0.508-1.288-1.229-2.534-2.154-3.702l-0.283-0.372c-0.167-0.216-0.323-0.416-0.562-0.695    c-1.668-2.142-2.517-4.558-2.517-7.182c0-2.773,1.004-5.365,2.986-7.696c0.011-0.011,0.021-0.025,0.028-0.035    c0.617-0.756,0.53-1.654-0.279-2.351c-0.726-0.529-1.302-0.687-1.937-0.6c-0.679,0.036-1.205,0.269-1.702,0.782    c-0.983,1.173-1.792,2.416-2.423,3.76l-0.75,1.975c-0.399,1.337-0.603,2.739-0.603,4.165c0,3.237,1.048,6.288,3.152,9.11    c0.196,0.232,0.388,0.49,0.617,0.812l0.352,0.428c0.207,0.281,0.388,0.542,0.559,0.818c0.678,0.996,1.182,2.059,1.527,3.245    c0.008,0.033,0.011,0.062,0.022,0.094c0.282,1.001,0.402,2,0.352,3.105c0.04,2.665-0.954,5.274-2.942,7.614    c-0.403,0.442-0.464,0.856-0.454,1.137c0.025,0.416,0.261,0.826,0.715,1.22c0.519,0.409,1.074,0.618,1.65,0.618    c0.091,0,0.182-0.004,0.25-0.009c0.671-0.04,1.244-0.285,1.636-0.728c0.646-0.784,1.194-1.536,1.688-2.322    c1.469-2.454,2.213-5.022,2.213-7.634c0-0.822-0.091-1.622-0.298-2.612C56.261,39.055,56.007,38.158,55.637,37.3z M50.99,52.593    l0.004,0.002l-0.004,0.023V52.593z"></path><path d="M74.667,40.452c0.007-0.089,0.003-0.176-0.015-0.263c-0.178-0.939-0.486-1.926-0.835-2.677    c-0.011-0.072-0.028-0.141-0.058-0.21c-0.529-1.3-1.266-2.548-2.18-3.711l-0.802-1.097c-1.701-2.102-2.536-4.483-2.5-7.106    c0-0.024,0.004-0.049,0.004-0.073c0-2.777,0.994-5.354,2.942-7.661c0.758-0.905,0.696-1.582-0.247-2.385    c-0.693-0.504-1.208-0.671-1.938-0.598c-0.66,0.034-1.175,0.27-1.636,0.765c-0.921,1.078-1.69,2.208-2.317,3.452L64.06,21.56    c-0.322,1.219-0.479,2.49-0.464,3.774c-0.051,3.256,1.001,6.31,3.134,9.07l0.327,0.466c0.21,0.297,0.409,0.579,0.605,0.823    l0.098,0.136c0.025,0.043,0.055,0.087,0.091,0.127c0.047,0.056,0.095,0.116,0.138,0.174c0.021,0.054,0.051,0.11,0.084,0.156    l0.231,0.343c0.617,0.912,1.106,1.941,1.484,3.187c0.279,1.119,0.413,2.088,0.413,3.042c0,2.691-0.979,5.234-2.905,7.561    c-0.025,0.027-0.048,0.058-0.069,0.093c-0.025,0.038-0.058,0.089-0.087,0.138c-0.275,0.352-0.399,0.722-0.362,1.103    c0.036,0.416,0.254,0.799,0.779,1.237c0.036,0.036,0.102,0.093,0.148,0.121c0.454,0.3,0.896,0.439,1.4,0.439    c0.091,0,0.178-0.004,0.276-0.009c0.743-0.042,1.196-0.241,1.712-0.789c0.595-0.723,1.132-1.477,1.606-2.253    c0.004-0.009,0.015-0.023,0.019-0.036c1.454-2.367,2.162-4.854,2.162-7.605C74.881,42.09,74.812,41.295,74.667,40.452z"></path></g></g></svg>