<?xml version="1.0" encoding="utf-8"?><!DOCTYPE svg PUBLIC "-//W3C//DTD SVG 1.1//EN" "http://www.w3.org/Graphics/SVG/1.1/DTD/svg11.dtd"><svg version="1.1" xmlns="http://www.w3.org/2000/svg" xmlns:xlink="http://www.w3.org/1999/xlink" x="0px" y="0px" viewBox="0 0 84.15 100" enable-background="new 0 0 84.15 100" xml:space="preserve"><path fill="#010101" d="M84.15,5.635v-0.75C83.044,4.443,79.709,1.106,79.267,0h-0.749c-0.776,1.939-2.669,3.31-4.885,3.31
	c-2.217,0-4.111-1.371-4.885-3.31h-6.01c-0.773,1.939-2.669,3.31-4.884,3.31c-2.217,0-4.111-1.371-4.885-3.31h-6.008
	c-0.774,1.939-2.669,3.31-4.885,3.31S37.966,1.939,37.191,0h-6.009c-0.775,1.939-2.669,3.31-4.884,3.31
	c-2.216,0-4.11-1.371-4.885-3.31h-6.009c-0.775,1.939-2.669,3.31-4.885,3.31S6.41,1.939,5.635,0h-0.75
	C4.443,1.106,1.107,4.443,0,4.885v0.75C1.939,6.41,3.31,8.304,3.31,10.52c0,2.216-1.371,4.11-3.31,4.885v6.009
	c1.939,0.775,3.31,2.669,3.31,4.885S1.939,30.408,0,31.183v6.008c1.939,0.775,3.31,2.669,3.31,4.885c0,2.216-1.371,4.11-3.31,4.885
	v6.008c1.939,0.774,3.31,2.669,3.31,4.886c0,2.215-1.371,4.108-3.31,4.885v6.008c1.939,0.775,3.31,2.669,3.31,4.885
	S1.939,77.743,0,78.519v6.008c1.939,0.774,3.31,2.668,3.31,4.884S1.939,93.521,0,94.295v0.819c1.105,0.443,4.443,3.779,4.885,4.885
	h0.75c0.774-1.938,2.669-3.309,4.885-3.309s4.11,1.371,4.885,3.309h6.009c0.775-1.938,2.669-3.309,4.885-3.309
	c2.215,0,4.109,1.371,4.884,3.309h6.009c0.775-1.938,2.669-3.309,4.885-3.309s4.11,1.371,4.885,3.309h6.008
	c0.773-1.938,2.668-3.309,4.885-3.309c2.215,0,4.109,1.371,4.884,3.309h6.01c0.773-1.938,2.668-3.309,4.885-3.309
	c2.216,0,4.108,1.371,4.885,3.309h0.749c0.441-1.105,3.777-4.441,4.884-4.885v-0.819c-1.938-0.773-3.31-2.669-3.31-4.885
	s1.371-4.109,3.31-4.884v-6.008c-1.938-0.774-3.31-2.67-3.31-4.886s1.371-4.109,3.31-4.885v-6.008
	c-1.938-0.774-3.31-2.67-3.31-4.885c0-2.217,1.371-4.111,3.31-4.886v-6.011c-1.938-0.774-3.31-2.669-3.31-4.885
	s1.371-4.11,3.31-4.885v-6.009c-1.938-0.775-3.31-2.669-3.31-4.885c0-2.215,1.371-4.109,3.31-4.884v-6.009
	c-1.938-0.775-3.31-2.669-3.31-4.885C80.841,8.302,82.212,6.41,84.15,5.635z M71.88,87.286H12.273V12.712h59.604v74.573H71.88z"></path></svg>