<?xml version="1.0" encoding="utf-8"?><!DOCTYPE svg PUBLIC "-//W3C//DTD SVG 1.1//EN" "http://www.w3.org/Graphics/SVG/1.1/DTD/svg11.dtd"><svg version="1.1" xmlns="http://www.w3.org/2000/svg" xmlns:xlink="http://www.w3.org/1999/xlink" x="0px" y="0px" viewBox="0 0 65.847 100" enable-background="new 0 0 65.847 100" xml:space="preserve"><path fill="#010101" d="M16.692,33.252c0,0-8.501-5.618-7.283-12.667C10.626,13.536,18.054,14.786,18.38,0
	c0,16.681,6.146,19.67,7.601,21.855c1.456,2.186,2.85,8.868-6.228,11.718c6.756-4.647,5.745-7.802,3.842-10.113
	c-1.902-2.311-4.258-2.926-6.27-8.047C11.868,19.655,9.21,25.652,16.692,33.252L16.692,33.252z"></path><path fill="#010101" d="M62.198,100H33.007c-2.007,0-3.648-1.641-3.648-3.648V55.867c0-2.007,1.642-3.648,3.648-3.648
	h29.191c2.006,0,3.648,1.642,3.648,3.648v40.485C65.847,98.36,64.204,100,62.198,100z"></path><path fill="#010101" d="M46.127,45.53c0,0-8.501-5.618-7.283-12.667c1.219-7.049,8.646-5.798,8.972-20.585
	c0,16.681,6.146,19.67,7.602,21.855c1.455,2.185,2.85,8.867-6.228,11.718c6.757-4.647,5.745-7.802,3.842-10.114
	c-1.902-2.312-4.258-2.926-6.27-8.047C41.303,31.932,38.646,37.929,46.127,45.53L46.127,45.53z"></path><path fill="#010101" d="M32.839,38.752H3.649C1.642,38.752,0,40.394,0,42.401v53.951C0,98.36,1.642,100,3.649,100h22.41
	c-0.578-1.092-0.906-2.334-0.906-3.648V55.867c0-4.319,3.534-7.854,7.854-7.854h3.481v-5.612
	C36.488,40.394,34.847,38.752,32.839,38.752z"></path></svg>