<svg xmlns:dc="http://purl.org/dc/elements/1.1/" xmlns:cc="http://creativecommons.org/ns#" xmlns:rdf="http://www.w3.org/1999/02/22-rdf-syntax-ns#" xmlns:svg="http://www.w3.org/2000/svg" xmlns="http://www.w3.org/2000/svg" xmlns:sodipodi="http://sodipodi.sourceforge.net/DTD/sodipodi-0.dtd" xmlns:inkscape="http://www.inkscape.org/namespaces/inkscape" viewBox="0 0 80 80" version="1.1" x="0px" y="0px"><path style="" d="m 19.888325,5.9256207 c 0.135823,1.23592 0.43677,2.44956 0.623894,3.67179 0.12053,0.5567503 0.263577,1.1085303 0.345323,1.6714703 0.06322,0.40408 0.183986,0.79073 0.329794,1.16241 0.11077,0.38413 0.289096,0.75335 0.575123,1.03267 0.169852,0.17034 0.318416,0.36192 0.473246,0.54974 0.135364,-0.19992 0.226974,-0.41617 0.29484,-0.6437 -0.343218,-0.51705 -0.753997,-1.01918 -0.898209,-1.62974 -0.221718,-0.64069 -0.328322,-1.31624 -0.498739,-1.9706203 -0.291997,-1.35496 -0.637804,-2.68623 -0.913537,-4.04242 z m 7.089578,2.78547 c -0.175741,0.10743 -0.344895,0.22433 -0.482719,0.37574 -0.211708,0.22857 -0.503276,0.35203 -0.72997,0.55553 -0.905642,0.9580303 -1.831354,1.9535503 -2.34715,3.1797803 -0.110387,0.22748 -0.262011,0.42864 -0.352396,0.66114 -0.134319,0.34376 -0.397381,0.62855 -0.43793,1.00122 -0.122042,0.50637 -0.317848,0.98887 -0.469893,1.48771 -0.37619,1.55912 -0.594856,3.16851 -0.643424,4.77813 -0.109471,3.09917 -0.09892,6.22852 0.500849,9.27741 0.116725,0.59302 0.294752,1.17486 0.417741,1.76414 0.02099,0.19139 0.234779,0.25048 0.375981,0.34449 0.296265,0.11173 0.64904,0.0622 0.895111,0.28893 0.210158,-0.0322 0.42557,-0.21199 0.498387,-0.41703 0.06694,-0.45642 -0.226386,-0.87583 -0.198228,-1.32606 0.08547,-0.29755 0.377126,-0.46349 0.646206,-0.58192 0.711876,-0.14532 1.453454,-0.0705 2.171526,-0.17702 0.20888,-0.006 0.280463,-0.22728 0.419489,-0.33582 0.182788,-0.13484 0.36183,-0.27594 0.504704,-0.46331 0.197954,-0.23736 0.580767,-0.27929 0.739975,-0.55302 -0.08966,-0.27779 0.04079,-0.54277 0.259919,-0.7163 0.317796,-0.0796 0.634435,-0.21797 0.867447,-0.46776 -0.102179,-0.2703 -0.443543,-0.32957 -0.526945,-0.61111 -0.01227,-0.16261 0.07425,-0.31633 0.215687,-0.39242 0.34548,-0.18961 0.597306,-0.49319 0.854103,-0.77424 -0.109899,-0.11272 -0.247359,-0.20047 -0.36978,-0.3057 -0.146173,-0.11653 -0.130773,-0.38918 0.04945,-0.47147 0.221732,-0.14076 0.444389,-0.26577 0.650979,-0.43185 -0.114637,-0.30534 -0.489511,-0.54853 -0.368934,-0.90106 0.09326,-0.49766 0.239049,-0.99274 0.558563,-1.39627 0.101558,-0.1712 0.283184,-0.36481 0.21844,-0.57253 -0.256136,-0.18673 -0.556626,0.0355 -0.829326,0.0626 -0.252207,-0.30804 -0.05898,-0.73802 -0.01346,-1.08816 0.137656,-0.0398 0.282753,-0.0671 0.404187,-0.14828 0.06277,-0.16501 0.04927,-0.34388 -0.02179,-0.50533 -0.09475,-0.21526 0.05939,-0.42642 0.194696,-0.58381 0.294414,-0.34604 0.492611,-0.75349 0.664542,-1.16224 0.120513,-0.31001 0.322267,-0.58364 0.389024,-0.91249 0.177328,-0.6839 0.45842,-1.33638 0.585734,-2.03286 0.202364,-0.69887 0.302186,-1.4129 0.464542,-2.12183 0.16934,-1.22298 0.478831,-2.49579 0.07031,-3.7045803 -0.138438,-0.2741 -0.299401,-0.54324 -0.49792,-0.78992 -0.132418,-0.10775 -0.282396,-0.18801 -0.4336,-0.28454 -0.146836,0.35125 0.06279,0.70176 0.02101,1.05816 -0.09664,0.23625 -0.234525,0.44617 -0.317422,0.6912003 -0.103849,0.0111 -0.202622,0.002 -0.291477,0.0384 -0.04399,0.15378 0.06831,0.34155 -0.03822,0.49024 -0.144093,0.17112 -0.319393,0.31848 -0.484702,0.46833 0.0132,0.3915 -0.08374,0.84038 -0.440505,1.05375 0.05468,0.24771 -0.168194,0.41499 -0.199788,0.64634 -0.03154,0.18882 -0.281792,0.25347 -0.289565,0.45361 -0.01908,0.22385 -0.21311,0.33989 -0.3559,0.48477 0.0335,0.18391 0.0445,0.37278 0.06174,0.55792 -0.09891,0.0762 -0.197819,0.15233 -0.292981,0.23476 0.02988,0.0926 0.05602,0.17893 0.08591,0.27153 -0.09265,0.0724 -0.19156,0.14859 -0.273021,0.23972 -0.112846,0.19495 -0.120691,0.43759 -0.107249,0.65899 -0.100103,0.0173 -0.210157,0.0322 -0.305277,0.0721 -0.03267,0.0875 -0.0028,0.18011 8.62e-4,0.27141 -0.07634,0.0286 -0.152686,0.0573 -0.235236,0.0898 0.115978,0.23655 0.199316,0.56061 -0.04484,0.74912 0.06474,0.20771 0.233192,0.48937 0.04155,0.68046 -0.266861,0.32106 -0.292502,0.76128 -0.460633,1.13376 -0.06657,0.20128 -0.460517,0.18197 -0.432675,-0.0557 0.08836,-0.5627 0.398043,-1.09633 0.311326,-1.68179 0.09029,-0.0622 0.176529,-0.1311 0.260408,-0.18977 0.0219,-0.44648 0.0738,-0.88541 0.06944,-1.33318 0.0079,-0.24263 0.09197,-0.4714 0.106082,-0.71777 0.08013,-0.0649 0.170271,-0.12736 0.260408,-0.18977 -0.02106,-0.14887 -0.03959,-0.30774 0.06565,-0.43016 0.127828,-0.1699 0.03681,-0.37892 0.02208,-0.57405 0.04277,-0.17004 0.247983,-0.22475 0.376953,-0.33591 -0.05235,-0.13015 -0.09843,-0.26404 -0.15452,-0.40045 0.145234,-0.11238 0.294215,-0.21849 0.435753,-0.33705 -0.178272,-0.41174 -0.144897,-1.00954 0.309429,-1.23028 -0.02362,-0.0963 -0.05351,-0.18893 -0.07714,-0.28527 l 0.248147,-0.35236 c -0.142121,-0.32289 0.0097,-0.6941403 0.286427,-0.8851103 0.09044,-0.27504 -4.42e-4,-0.56909 0.04999,-0.85418 0.311716,-0.20344 0.663412,-0.35424 0.948899,-0.60153 -0.09733,-0.16274 -0.177104,-0.35296 -0.318243,-0.48949 -0.538716,-0.24717 -1.139338,-0.0579 -1.671111,0.0902 -0.346515,0.0458 -0.605752,0.29435 -0.933574,0.3714 -0.299019,0.0684 -0.556914,0.24813 -0.813534,0.4016 -0.105621,0.0632 -0.213124,0.12397 -0.318671,0.18826 z M 46.537641,0.71170072 c -0.08332,0.54269998 0.427719,0.89988998 0.48578,1.40901998 0.05211,0.30025 0.314437,0.52575 0.350278,0.82723 0.0259,0.25644 0.208222,0.46182 0.252893,0.70703 0.06462,0.29276 0.21184,0.55312 0.266457,0.84337 0.295241,0.83467 0.424058,1.71786 0.600435,2.58112 0.171326,0.0165 0.338911,0.0267 0.510237,0.0433 0.03399,-0.15629 0.01546,-0.31515 -0.02811,-0.45905 -0.193687,-1.00588 -0.49371,-1.99062 -0.856327,-2.93795 -0.02204,-0.33523 -0.298119,-0.56951 -0.348928,-0.89602 -0.05941,-0.44034 -0.436677,-0.75857 -0.531128,-1.18645 -0.07702,-0.37033 -0.306703,-0.68333998 -0.503876,-0.99879998 -0.07008,0.0249 -0.133909,0.0461 -0.197733,0.0672 z M 28.209001,16.797591 c -0.284209,0.22101 -0.507525,0.68593 -0.178978,0.96531 0.11147,-0.12621 0.222991,-0.25233 0.273242,-0.40985 0.08406,-0.18625 -0.06076,-0.37156 -0.09426,-0.55546 z m 18.28514,-8.8091803 c -0.08852,0.0576 -0.17249,0.12542 -0.248578,0.206 -0.06149,0.13873 0.08966,0.27779 0.208403,0.33423 0.373706,0.18439 0.754963,0.33878 1.117376,0.54691 -0.04031,0.20257 -0.08436,0.39887 -0.07841,0.60775 0.05971,0.22772 0.173239,0.4317503 0.286765,0.6357803 0.203362,0.35425 0.65482,0.39867 0.924577,0.67921 0.524548,0.53607 0.230632,1.40866 0.736403,1.95595 0.277186,0.33559 0.501785,0.71113 0.747676,1.06544 -0.149233,0.2762 -0.312266,0.58615 -0.238935,0.90769 0.103411,0.28657 0.390834,0.45457 0.538055,0.71494 0.03983,0.13763 -0.0079,0.28515 -0.03687,0.42145 -0.06106,-0.15893 -0.08831,-0.34658 -0.190667,-0.48932 -0.137393,-0.13027 -0.319887,-0.20807 -0.454768,-0.34835 -0.127336,-0.17028 -0.198333,-0.37425 -0.334448,-0.53079 -0.264728,-0.30055 -0.721209,-0.32496 -0.958384,-0.65049 -0.288421,-0.35437 -0.409004,-0.86859 -0.22204,-1.29482 0.132968,-0.27498 -0.109298,-0.53798 -0.271612,-0.73833 -0.288718,-0.14174 -0.675242,-0.10601 -0.88499,-0.37147 -0.247305,-0.243 0.222187,-0.56627 -0.03137,-0.80552 -0.209809,-0.22293 -0.234361,-0.54816 -0.38532,-0.81477 -0.137284,-0.2153203 0.0257,-0.4827503 -0.105316,-0.7018203 -0.143467,-0.2541 -0.286829,-0.59325 -0.619478,-0.62375 -0.320013,-0.12302 -0.564292,0.15054 -0.750944,0.36418 -0.537286,0.50828 -0.778491,1.2558803 -0.838306,1.9799703 -0.109887,0.75404 -0.100973,1.522 -0.0082,2.27382 0.09704,1.24212 0.551891,2.41471 1.008027,3.56102 0.103346,0.3291 0.310572,0.60456 0.455217,0.91744 0.132182,0.27785 0.233069,0.57442 0.377769,0.84478 0.140953,0.26411 0.427162,0.41586 0.558118,0.67745 0.04725,0.19267 -0.10057,0.35756 -0.169602,0.52631 -0.158125,0.375 -0.320055,0.78626 -0.249356,1.20286 0.02707,0.31522 0.270566,0.59448 0.183802,0.9183 -0.196405,0.041 -0.404076,0.0632 -0.571844,0.18054 -0.09269,0.11497 0.0022,0.24515 0.05327,0.35904 0.234483,0.4631 0.750733,0.67271 1.050319,1.08838 -0.07515,0.0875 -0.154099,0.1686 -0.229249,0.25607 0.128317,0.35664 0.508345,0.49477 0.786941,0.71905 -0.06771,0.0999 -0.135364,0.19992 -0.196787,0.29614 0.375918,0.38701 0.873396,0.60785 1.263125,0.96111 0.115796,0.36413 0.269096,0.74833 0.167239,1.13215 0.488643,0.27711 1.075093,0.37675 1.475989,0.79131 0.06981,0.14515 0.07206,0.34783 0.244521,0.42308 0.419916,0.23323 0.908816,0.34027 1.2798,0.66219 0.524446,-0.20296 1.114665,-0.18227 1.637194,0.0236 1.036551,0.21284 1.724479,1.09313 2.635576,1.55088 0.333976,0.004 0.715596,-0.0965 0.929859,-0.37761 0.320664,-0.34476 0.502669,-0.7935 0.649632,-1.22979 0.227462,-0.75637 0.364913,-1.53536 0.50857,-2.31818 0.18943,-1.26043 0.138727,-2.53874 0.06299,-3.80207 -0.238594,-2.85705 -0.753614,-5.6932 -1.649025,-8.41232 -0.109478,-0.41039 -0.344078,-0.78845 -0.399747,-1.22254 l -1.486091,-2.48482 c -0.188694,-0.11659 -0.329772,-0.29564 -0.467107,-0.46844 -0.824192,-0.9092103 -1.824923,-1.6873403 -2.977457,-2.1367303 -0.347508,-0.14059 -0.696236,-0.29742 -1.081415,-0.33048 -0.245089,-0.0404 -0.49907,0.018 -0.742929,-0.006 -0.56528,-0.0358 -1.133015,-0.10417 -1.69971,-0.0287 -0.439144,0.0969 -0.923965,0.15361 -1.308215,0.40213 z M 31.33392,19.024591 c -0.09284,0.19998 -0.357005,0.38347 -0.277288,0.61622 0.373401,0.39701 0.811915,0.74659 1.096403,1.22227 0.133537,0.20906 0.364751,0.32571 0.479505,0.546 0.345606,0.5921 0.731291,1.15173 1.023089,1.7675 0.06211,0.30276 0.203063,0.56687 0.344019,0.83097 0.249031,0.78582 0.498062,1.57164 0.737087,2.35494 0.07855,0.17396 0.169614,0.34043 0.209381,0.52061 0.09561,0.48666 0.495333,0.84244 0.603471,1.32162 0.20546,0.64193 0.686246,1.16167 0.923007,1.78487 0.07211,0.30528 0.245591,0.56693 0.41532,0.82232 -0.01252,0.007 -0.03396,0.0285 -0.04257,0.0425 -0.139908,-0.12028 -0.19962,-0.348 -0.407219,-0.36831 -0.009,0.18386 0.01449,0.36524 0.02174,0.54786 -0.167521,-0.0528 -0.327681,-0.008 -0.459183,0.11316 0.123407,0.2916 0.537492,0.23091 0.660896,0.5225 0.252025,0.43562 0.52284,0.85999 0.762344,1.3031 -0.239255,0.25356 -0.304841,0.6412 -0.121422,0.94788 0.167228,0.2654 0.14299,0.59431 0.122563,0.88695 -0.217297,-0.23544 -0.176802,-0.56559 -0.336536,-0.81846 l -0.281655,0.16845 c 0.07064,0.45912 0.102499,0.92444 0.118091,1.39098 -0.07595,-0.0559 -0.146157,-0.11649 -0.203602,-0.18414 -0.116105,-0.15151 -0.06076,-0.37156 -0.17686,-0.52306 -0.117451,-0.0827 -0.262636,-0.0129 -0.365297,0.057 0.116845,0.50796 0.214888,1.02711 0.319256,1.54263 0.07858,0.1314 0.21857,0.20917 0.328449,0.32185 0.04985,0.14019 -0.08286,0.24508 -0.156832,0.34874 -0.471017,0.51963 -0.700846,1.201 -1.03069,1.81459 -0.132896,0.23247 -0.323313,0.4398 -0.418697,0.69237 -0.154457,0.42376 -0.376391,0.81994 -0.467066,1.26509 -0.110821,0.52514 -0.255408,1.03644 -0.386201,1.5566 -0.04034,0.20252 -0.231856,0.30855 -0.383349,0.42467 0.529351,0.68618 0.81327,1.54455 1.496627,2.1046 0.436966,0.54592 0.841408,1.13692 1.414877,1.54162 0.173754,0.092 0.36258,0.1232 0.546331,0.1747 0.33635,0.079 0.655067,0.2285 1.007767,0.2215 0.496568,-0.01 0.999307,0.023 1.498434,-0.038 0.46418,-0.091 0.915927,-0.2588 1.37389,-0.3882 0.307532,-0.083 0.57071,-0.2819 0.849698,-0.4406 0.345372,-0.2182 0.708707,-0.4064 1.043814,-0.6418 0.845143,-0.63286 1.19809,-1.67672 1.727172,-2.55394 -0.07713,-0.28525 -0.230649,-0.54195 -0.330297,-0.82224 -0.08202,-0.35026 -0.231652,-0.68572 -0.38375,-1.01108 -0.102077,-0.35539 -0.14659,-0.7282 -0.203568,-1.09343 -0.08581,-0.35662 -0.232887,-0.70199 -0.420079,-1.01499 -0.263307,-0.41184 -0.403991,-0.88863 -0.636,-1.31918 -0.0948,-0.17274 -0.148302,-0.36164 -0.185538,-0.55178 -0.195042,-0.0704 -0.485154,-0.10077 -0.488544,-0.36219 0.139606,-0.53385 0.259199,-1.07273 0.338769,-1.6217 0.01887,-0.0963 -0.03981,-0.18022 -0.0722,-0.26281 -0.376544,0.0808 -0.326005,0.57739 -0.650195,0.74576 0.01209,-0.57654 0.176776,-1.16791 0.0025,-1.74347 l -0.25662,0.15348 c -0.06916,0.25378 -0.08706,0.53644 -0.23997,0.76387 -0.0297,-0.22017 -0.06315,-0.44661 0.0059,-0.65792 0.09658,-0.19373 0.218188,-0.40244 0.207262,-0.63384 0.03038,-0.2476 -0.25828,-0.43186 -0.179111,-0.68312 0.05289,-0.25258 0.08577,-0.51019 0.178674,-0.75269 0.142858,-0.1874 0.295702,-0.3723 0.491019,-0.51461 0.219107,-0.17357 0.368297,-0.40721 0.552441,-0.61082 -0.025,-0.0276 -0.08118,-0.0789 -0.106157,-0.10647 -0.245293,0.0872 -0.459376,0.24071 -0.663453,0.39679 0.07296,-0.29006 0.179661,-0.56633 0.310117,-0.83129 0.549787,-1.38253 1.177079,-2.73494 1.615614,-4.1614 0.465409,-1.85042 1.212106,-3.61415 2.003781,-5.34529 0.118239,-0.47011 0.238988,-0.95022 0.458478,-1.37891 -0.138624,-0.14653 -0.279764,-0.28306 -0.414639,-0.42333 -0.816291,1.44843 -1.421364,3.00849 -2.04141,4.54351 -0.09167,0.25877 -0.139594,0.53386 -0.251268,0.78761 -0.273489,0.57994 -0.355702,1.22396 -0.605436,1.8152 -0.133273,0.4876 -0.384059,0.935 -0.561081,1.40628 -0.402773,0.9037 -0.815546,1.8049 -1.214577,2.71486 -0.04888,0.0888 -0.111563,0.16868 -0.174205,0.24865 -0.02602,-0.17139 0.0059,-0.61535 -0.26571,-0.48691 -0.239855,0.67881 -0.197135,1.41805 -0.406982,2.10441 -0.02144,0.021 -0.05011,0.0725 -0.0614,0.0963 -0.0645,-0.37782 -0.02892,-0.773 -0.142202,-1.14713 -0.07598,-0.22649 -0.09813,-0.47667 -0.231663,-0.68573 -0.121074,-0.17402 -0.07322,-0.4066 -0.178027,-0.58185 -0.221535,0.0985 -0.461695,0.12317 -0.671621,-0.0147 -0.06885,0.0412 -0.143956,0.0861 -0.209213,0.13328 0.03737,0.10511 0.06474,0.2077 0.102115,0.31282 -0.109051,0.15867 -0.248084,0.30984 -0.285885,0.50239 -0.08431,0.35634 -0.158609,0.71519 -0.160379,1.08166 -0.01024,0.16759 0.01952,0.34523 -0.07326,0.50269 -0.168446,-0.28165 -0.161703,-0.6256 -0.243817,-0.9334 -0.07978,-0.19022 -0.207104,-0.36051 -0.251847,-0.56319 -0.02608,-0.12886 -0.0459,-0.26147 -0.113281,-0.37413 -0.437968,-0.7323 -0.875935,-1.46461 -1.307632,-2.20065 -0.113524,-0.20404 -0.233307,-0.40432 -0.299279,-0.62829 -0.124276,-0.56302 -0.622733,-0.97021 -0.711971,-1.54568 -0.06217,-0.26024 -0.244487,-0.46562 -0.296648,-0.72335 -0.05707,-0.32276 -0.276818,-0.59074 -0.317633,-0.91473 -0.165815,-0.37671 -0.229024,-0.78079 -0.419874,-1.14252 -0.04566,-0.43157 -0.342853,-0.77219 -0.528668,-1.15393 -0.324377,-0.5708 -0.673797,-1.12663 -1.044504,-1.66121 -0.309892,-0.20557 -0.448212,-0.56472 -0.745584,-0.77777 -0.26982,-0.23803 -0.490735,-0.56478 -0.83075,-0.69284 z m 17.40918,-6.29895 c -0.03283,0.21508 -0.108174,0.4301 -0.08473,0.65402 0.09599,0.23152 0.245714,0.48188 0.498225,0.5773 0.054,-0.15126 0.124255,-0.30376 0.108236,-0.47262 -0.182255,-0.24792 -0.38954,-0.48084 -0.521731,-0.7587 z m -24.110884,17.91249 c -0.05587,0.0345 -0.109069,0.0734 -0.1654,0.10707 0.03566,0.42905 0.268969,0.83337 0.200804,1.27353 -0.02184,0.40396 -0.411123,0.61978 -0.695354,0.84076 -0.120512,0.31001 -0.157263,0.6464 -0.227761,0.96899 -0.172587,0.0951 -0.349228,0.18335 -0.511962,0.28067 0.147096,0.34541 0.525898,0.46728 0.764419,0.72401 0.109904,0.11273 0.172193,0.28792 0.34352,0.30442 0.242571,0.0504 0.487661,0.0907 0.68881,0.24237 -0.02528,0.18508 -0.170705,0.42501 0.0079,0.58161 0.309951,0.16304 0.67138,0.18481 1.007716,0.26409 -0.03143,0.10374 -0.06283,0.20753 -0.100507,0.31504 0.352475,0.1631 0.741395,0.20242 1.127866,0.20923 0.438992,0.009 0.88161,0.11006 1.320723,0.0344 0.230169,-0.0272 0.458998,0.0144 0.685368,0.0235 0.42145,0.0369 0.838044,-0.0338 1.243408,-0.1233 0.395458,-0.17709 0.833435,-0.3115 1.150285,-0.62002 0.279505,-0.41359 0.379023,-0.915 0.453511,-1.40142 -0.09726,-0.20526 -0.369843,-0.26319 -0.473366,-0.4647 -0.0731,-0.49164 -0.403977,-0.8886 -0.657291,-1.29795 -0.265896,-0.35933 -0.763918,-0.19745 -1.1013,-0.42056 -0.478638,-0.27459 -0.929669,-0.61669 -1.448442,-0.81629 -0.261285,-0.0817 -0.313387,-0.38192 -0.512024,-0.54354 -0.303569,-0.25183 -0.620887,-0.51244 -0.98711,-0.68431 -0.64413,0.003 -1.295749,-0.007 -1.933805,0.11982 -0.06567,0.0181 -0.124364,0.0478 -0.180233,0.0823 z m 6.602201,2.05935 c 0.220852,0.36927 0.439186,0.74856 0.672573,1.11035 0.156338,-0.009 0.324054,-0.0833 0.477776,0.003 0.344928,0.1931 0.728698,0.33748 1.11756,0.41933 0.09498,0.0451 0.169916,0.12782 0.273683,0.15923 0.355113,0.068 0.687581,0.22611 1.05024,0.26415 0.282522,0.10297 0.635176,0.13848 0.881858,-0.06 -0.0086,-0.0713 -0.0073,-0.14009 -0.01222,-0.20514 -0.527484,-0.22838 -1.062517,-0.42676 -1.587484,-0.66515 -0.103755,-0.0314 -0.09236,-0.14021 -0.11475,-0.22029 0.105035,0.005 0.216363,0.007 0.311357,0.0517 0.519996,0.21586 1.027481,0.43922 1.549994,0.64509 0.21876,0.0816 0.243003,-0.24729 0.19942,-0.39121 -0.232269,-0.26048 -0.478274,-0.52973 -0.780677,-0.72278 -0.30007,-0.0755 -0.586333,-0.18469 -0.867563,-0.31391 -0.167465,-0.0953 -0.39273,-0.003 -0.552642,-0.12836 -0.14992,-0.12279 -0.341365,-0.0593 -0.520181,-0.0883 -0.357629,-0.058 -0.732928,-0.004 -1.071655,-0.15786 -0.198695,-0.1191 -0.370327,0.077 -0.526801,0.1706 -0.141488,0.11864 -0.32908,0.10336 -0.500479,0.12936 z m -8.3757,5.38312 c -0.05643,0.0303 -0.09594,0.0829 -0.08591,0.16184 0.01713,0.27019 -0.218261,0.44496 -0.302387,0.67372 -0.0042,0.29141 -0.03963,0.60154 -0.241325,0.83264 0.187101,0.35548 0.179014,0.76821 0.09342,1.15081 0.230306,-0.11222 0.431871,-0.25829 0.665924,-0.36424 0.211528,-0.10099 0.455378,-0.0769 0.680581,-0.12661 0.08639,-0.0687 0.161542,-0.15615 0.250496,-0.23475 -0.03234,-0.12512 -0.05216,-0.25773 -0.0745,-0.38033 0.07392,-0.10375 0.175388,-0.18984 0.215565,-0.30738 -0.02854,-0.16138 -0.147154,-0.30288 -0.09064,-0.46415 0.02773,-0.15255 0.111737,-0.29626 0.100691,-0.44261 -0.06235,-0.132665 0.452237,-1.24853 0.667382,-1.769952 0.215144,-0.521422 0.130846,-0.448402 -0.297381,-0.606536 -0.257339,-0.104345 -0.04755,-0.828604 -0.215619,-0.677363 -0.168072,0.15124 -0.712684,1.310914 -0.807473,1.479159 -0.103785,0.184212 -0.196614,0.477599 -0.264787,0.684415 -0.06817,0.206815 -0.124475,0.351592 -0.182014,0.358397 -0.03893,0.004 -0.07825,0.0146 -0.112003,0.033 z m 13.926361,-7.07122 c 0.03756,-0.0225 0.109996,-0.0576 0.14755,-0.0801 0.07972,0.23275 0.347083,0.43826 0.28793,0.69457 -0.232445,-0.13291 -0.339653,-0.38321 -0.435625,-0.61473 z m -10.102267,6.21178 c 0.181206,0.10407 0.384995,0.16064 0.561176,0.28472 0.161081,0.18408 0.272089,0.39812 0.439432,0.57846 0.479562,0.50348 1.085661,0.86331 1.675494,1.22436 0.264907,0.17297 0.57245,0.26094 0.846169,0.42023 0.276179,0.1492 0.502245,0.37089 0.769653,0.53384 0.259966,0.15051 0.553781,0.22973 0.804925,0.3939 0.302408,0.19305 0.59102,0.41987 0.910971,0.58542 0.446186,0.23453 0.838418,0.57777 1.304658,0.7748 0.125759,-0.50016 0.265321,-0.99145 0.351107,-1.50161 0.168159,-0.41505 0.35638,-0.82498 0.52079,-1.2463 0.308378,-0.46478 0.611721,-0.95218 0.787603,-1.4822 -0.209535,-0.43561 -0.512908,-0.81498 -0.888967,-1.11697 l -0.240423,0.0669 c -0.123594,-0.16403 -0.250925,-0.3343 -0.41084,-0.45961 -0.322346,-0.24059 -0.324076,-0.78342 -0.765464,-0.86784 -0.02204,-0.33523 -0.139127,-0.6731 -0.388941,-0.90609 -0.159976,-0.0828 -0.342532,-0.11805 -0.522577,-0.16334 -0.03133,0.0613 -0.04897,0.13124 -0.05031,0.20004 -0.0095,0.52405 -0.157804,1.02914 -0.36361,1.50912 -0.218382,0.53 -0.797768,0.74056 -1.284625,0.96374 -0.33922,0.18587 -0.718192,0.1916 -1.089749,0.25235 -0.420335,0.0644 -0.84166,-0.0575 -1.269484,-0.006 -0.566694,0.0755 -1.13302,-0.10418 -1.697193,-0.0387 z m -3.749246,3.85475 c -0.165864,0.0992 -0.318945,0.22687 -0.464179,0.33925 0.106034,0.19151 0.279641,0.36811 0.284306,0.60326 0.01829,0.32897 0.310632,0.56202 0.351451,0.88602 0.0459,0.26147 0.184405,0.49306 0.31915,0.71836 0.294472,-0.21806 0.663233,-0.22666 1.003552,-0.31123 -0.08216,-0.30788 -0.164231,-0.61561 -0.316418,-0.89849 -0.05327,-0.35903 -0.269211,-0.66327 -0.309966,-1.02979 -0.04977,-0.18268 -0.07187,-0.47538 -0.327009,-0.47575 -0.196367,-0.002 -0.375008,0.0692 -0.540871,0.16839 z m 4.691392,-2.33626 c 0.101005,0.21151 0.203242,0.43929 0.39691,0.5784 0.268653,0.17924 0.363224,0.52207 0.623099,0.71505 0.27487,0.21805 0.368129,0.58711 0.649244,0.8014 0.218614,0.16661 0.333349,0.42949 0.490608,0.64981 0.09609,0.14644 0.256083,0.22927 0.364683,0.36822 0.206013,0.25921 0.319373,0.59085 0.599256,0.78886 0.263619,0.19924 0.334344,0.57327 0.613051,0.75509 0.261149,0.16669 0.323196,0.51198 0.571824,0.68616 0.273626,0.20176 0.384473,0.5434 0.65184,0.7489 0.191104,0.14904 0.280849,0.38434 0.431938,0.56594 0.187455,0.1003 0.407576,0.1131 0.603802,0.1997 0.102474,0.058 0.04976,0.1826 0.04716,0.2778 -0.06683,0.3713 -0.02488,0.754 -0.02291,1.1268 -0.272705,0.027 -0.582734,-0.051 -0.816923,0.1402 -0.03197,0.4864 0.164958,0.972 -0.01832,1.447 0.253843,0.069 0.513894,0.1346 0.782759,0.1437 0.02269,0.7768 0.179182,1.55 0.218082,2.3255 -0.258909,-0.01 -0.567662,-0.1109 -0.800573,0.054 0.06964,0.3154 0.06165,0.643 0.124985,0.9621 0.04469,0.2452 -0.04197,0.4839 -0.102366,0.7239 0.342611,0.076 0.691564,0.062 1.033119,-0.01 0.07959,0.3178 0.142927,0.6368 0.17378,0.9584 -0.286459,0.018 -0.586576,-0.015 -0.854435,0.1201 0.12847,0.229 0.269521,0.4506 0.391734,0.6834 0.143457,0.2541 0.175594,0.5494 0.284015,0.8159 0.151656,-0.073 0.305465,-0.157 0.459273,-0.2409 0.01348,0.1789 0.03702,0.3603 0.06302,0.5316 0.267544,0.078 0.537602,0.1459 0.8014,0.2175 0.01895,-0.1388 -0.0096,-0.3001 0.106896,-0.4038 0.170518,-0.1695 0.349448,-0.3535 0.579506,-0.4235 0.258952,-0.036 0.526582,-0.043 0.784351,-0.095 0.347813,-0.072 0.691564,0.062 1.036729,0.085 0.316383,0.032 0.63537,0.011 0.953029,0.016 0.418995,0 0.825694,-0.154 1.253419,-0.1208 0.173941,0.01 0.357682,0.016 0.527817,-0.027 0.379108,-0.091 0.766851,-0.1103 1.14578,-0.073 0.474007,0.039 0.960659,-0.056 1.43585,-5e-4 0.43147,0.039 0.848874,0.2827 1.004583,0.6993 0.09892,-0.034 0.212721,-0.042 0.295314,-0.1171 0.04124,-0.1016 0.0041,-0.2489 0.10676,-0.3188 0.228892,0 0.458925,0.057 0.685305,0.066 0.190352,-0.037 0.364378,-0.1154 0.551807,-0.143 -0.06315,-0.4466 0.07006,-0.8917 0.03938,-1.3408 -0.332375,-0.2006 -0.748994,-0.1299 -1.115448,-0.1317 0.02041,-0.2926 0.08962,-0.589 0.11634,-0.8853 0.395195,0.036 0.835385,0.061 1.164736,-0.2122 0.06171,-0.3089 -0.01039,-0.6142 -0.02369,-0.9206 0.04156,-0.2289 0.06943,-0.4665 -2.99e-4,-0.6967 -0.302765,0.062 -0.609141,0.033 -0.91177,0.01 0.07979,-0.7191 0.123356,-1.4419 0.183186,-2.166 0.160153,-0.1727 0.416662,-0.1132 0.619369,-0.2005 0.151656,-0.073 0.24152,-0.2214 0.353195,-0.3473 -0.105638,-0.4466 -0.160019,-0.9069 -0.22066,-1.3635 -0.265075,-0.045 -0.531478,-0.065 -0.799201,-0.015 -0.0044,-0.4053 0.01368,-0.8155 -0.04582,-1.2133 -0.0023,-0.1176 -0.06465,-0.25021 0.02928,-0.34892 0.179144,-0.14093 0.416901,-0.19806 0.589472,-0.36419 0.106488,-0.14875 0.201837,-0.31612 0.355843,-0.44225 -0.412337,-0.30581 -0.571708,-0.81384 -0.870054,-1.21323 -0.101668,0.12839 -0.19672,0.25363 -0.266982,0.40611 -0.270951,0.56999 -0.583159,1.11361 -0.954074,1.6159 -0.456124,0.58718 -1.13196,0.90638 -1.747854,1.28328 -0.268011,0.1486 -0.51713,0.3431 -0.814811,0.4279 -0.400397,0.112 -0.792065,0.2528 -1.193698,0.3485 -0.440464,0.1444 -0.910672,0.1113 -1.368456,0.1131 -0.415249,0 -0.844293,0.038 -1.248074,-0.1118 -0.35627,-0.1268 -0.745206,-0.1662 -1.078908,-0.3405 -0.36482,-0.2832 -0.697015,-0.6113 -0.982937,-0.9757 -0.224791,-0.248 -0.394425,-0.54588 -0.653023,-0.76513 -0.445965,-0.40467 -0.684056,-0.95907 -1.006024,-1.45479 -0.44513,-0.0907 -0.7761,-0.44516 -1.125921,-0.70328 -0.262384,-0.18296 -0.355735,-0.50955 -0.611858,-0.69626 -0.394743,-0.33323 -0.509023,-0.89374 -0.903768,-1.22698 -0.275959,-0.31933 -0.702311,-0.42124 -1.004634,-0.6994 -0.437185,-0.37578 -1.028606,-0.49794 -1.485917,-0.83633 -0.433658,-0.242 -0.80338,-0.59023 -1.245815,-0.81849 z m 17.768787,-9.38837 c -0.141108,0.0797 -0.268707,0.18832 -0.386888,0.30153 0.109898,0.11272 0.223553,0.2317 0.372297,0.2957 0.147521,0.0477 0.305104,0.0555 0.438788,0.13691 0.244978,0.12544 0.595209,0.0859 0.734884,0.37625 -0.469068,0.0256 -0.892501,-0.34141 -1.367942,-0.22702 -0.247664,0.0122 -0.261843,0.30104 -0.250874,0.48988 0.253572,0.23927 0.622451,0.31613 0.904847,0.50414 0.452667,0.0607 0.875136,0.24133 1.320267,0.33201 0.273582,0.24432 0.738903,0.21246 0.98693,-0.0548 0.3667,-0.29621 0.631813,-0.366516 0.882325,-0.771756 -0.166343,-0.204179 -0.407511,-0.386456 -0.593927,-0.536322 -0.373675,-0.18434 -0.764944,-0.34125 -1.118616,-0.56319 -0.203763,-0.0565 -0.411366,-0.0769 -0.587538,-0.20092 -0.338769,-0.11176 -0.697624,-0.18606 -1.064083,-0.18783 -0.09525,0.0219 -0.184458,0.0599 -0.269072,0.10779 z m -21.715796,14.65301 c -0.08725,0.0513 -0.169606,0.11425 -0.243374,0.18983 0.290636,0.55699 0.577472,1.15028 1.09096,1.53996 0.463413,0.4196 0.937982,0.9432 1.581893,1.0679 0.08826,-0.4777 0.166454,-0.9579 0.284729,-1.42793 -0.508598,-0.32468 -0.905675,-0.77548 -1.354152,-1.17014 -0.169911,-0.12781 -0.232009,-0.43056 -0.482191,-0.40841 -0.303958,0.003 -0.616257,0.0548 -0.878019,0.20853 z m 28.001928,-14.6034 c -0.326695,0.22101 -0.633471,0.48955 -0.881642,0.79923 -0.132964,0.14711 -0.233133,0.33483 -0.415878,0.42712 -0.652078,0.33056 -1.246668,0.75724 -1.851523,1.16676 -0.206847,0.16565 -0.427138,0.32303 -0.539867,0.56081 -0.267212,0.5336 -0.669287,0.96959 -1.012654,1.4469 -0.153221,0.44003 -0.264044,0.96517 0.01552,1.37577 0.232008,0.43056 0.728268,0.63515 1.177102,0.77465 0.582692,0.0933 1.180329,0.25432 1.774577,0.15387 0.305234,-0.0296 0.61293,-0.0692 0.923147,-0.0762 0.415206,0.0407 0.878978,0.20512 1.259542,-0.0395 0.157915,-0.077 0.309142,-0.23616 0.500634,-0.21435 0.0837,0.0689 0.227336,-0.15472 0.285998,-0.07084 0.306905,-0.14043 0.274651,-0.18815 0.40517,-0.49564 0.07154,-0.17876 0.14922,-0.21648 0.08562,-0.36545 0.291482,-0.0383 0.550613,-0.20183 0.838349,-0.24645 0.154949,-0.0251 0.275609,-0.12172 0.40079,-0.19658 -0.07854,-0.17395 -0.150873,-0.35173 -0.204377,-0.54065 0.153894,-0.16895 0.369281,-0.22086 0.587035,-0.2404 0.205236,-0.012 0.290367,-0.22492 0.418512,-0.35167 0.161294,-0.11394 0.356463,-0.17124 0.500719,-0.29946 -0.125881,-0.32414 -0.400646,-0.58465 -0.41765,-0.93988 -0.01604,-0.16892 -0.128391,-0.31414 -0.185686,-0.46677 0.009,-0.18389 0.06176,-0.35142 0.100817,-0.52766 0.03024,-0.16257 0.220589,-0.19951 0.334477,-0.29325 -0.256125,-0.18671 -0.524768,-0.36593 -0.789665,-0.53889 -0.353568,-0.26438 -0.689605,-0.55629 -1.089602,-0.74201 -0.219985,-0.0979 -0.461302,-0.13193 -0.690058,-0.21604 -0.498769,-0.19458 -1.064328,-0.0604 -1.528635,0.15789 z m -5.698918,4.04394 c -0.02885,0.0173 -0.05276,0.0432 -0.07785,0.0652 -0.283246,0.40734 -0.406493,0.89749 -0.448466,1.38145 -0.105177,0.0373 -0.223799,0.0663 -0.312651,0.14504 -0.09909,0.20374 -0.0782,0.48022 -0.252309,0.64377 -0.245627,0.21448 -0.342186,0.53613 -0.550146,0.77096 -0.0938,-0.029 -0.177533,-0.0553 -0.265022,-0.0879 -0.281835,0.29602 -0.440006,0.67094 -0.639322,1.01969 0.0784,0.25898 0.18559,0.50924 0.299087,0.75585 0.171936,0.45798 0.499054,0.84867 0.639748,1.32545 0.219357,0.52307 0.120966,1.12583 0.400399,1.62147 0.167176,0.30795 0.235492,0.64951 0.373838,0.96609 0.161593,-0.15607 0.284439,-0.34851 0.478468,-0.46455 0.239068,-0.16861 0.521864,-0.27832 0.72131,-0.49897 0.323271,-0.39725 0.833972,-0.56636 1.233202,-0.86501 0.05375,-0.10905 0.05039,-0.24255 0.121841,-0.33621 0.211964,-0.22814 0.502246,-0.36796 0.734994,-0.57555 0.195255,-0.14241 0.333183,-0.35226 0.55723,-0.46073 0.800973,-0.35157 1.487275,-0.92328 2.065963,-1.57548 0.218223,-0.23188 0.50973,-0.39806 0.691359,-0.67693 -0.315146,-0.0154 -0.63651,-0.0697 -0.949197,-0.0952 -0.594111,0.0154 -1.188401,0.15844 -1.779915,0.0788 -0.268822,-0.0516 -0.537644,-0.10329 -0.815238,-0.14118 -0.426446,-0.0594 -0.802591,-0.27632 -1.1537,-0.50818 -0.302408,-0.19305 -0.480829,-0.5198 -0.635439,-0.83515 -0.118238,-0.39662 -0.05511,-0.81679 0.04922,-1.21069 0.06537,-0.21749 -0.114501,-0.39037 -0.1993,-0.56058 -0.0974,0.0396 -0.203043,0.0643 -0.288054,0.11868 z m -19.072131,12.09695 c -0.241768,0.2635 -0.177295,0.6413 -0.277797,0.9563 -0.01402,0.2039 -0.160664,0.4276 -0.04467,0.6216 0.328721,0.1518 0.701392,0.1923 1.051495,0.2804 0.30131,0.092 0.639118,0.017 0.902736,0.2164 1.237665,0.3644 2.505536,0.6515 3.779749,0.8496 0.06268,-0.1225 0.137919,-0.2524 0.120599,-0.3951 -0.04707,-0.3202 -0.07787,-0.6417 -0.10241,-0.9669 -0.611475,-0.085 -1.216606,-0.2581 -1.830593,-0.3328 -0.551491,-0.07 -1.072785,-0.2592 -1.585308,-0.4626 -0.692569,-0.206 -1.313641,-0.5909 -2.013801,-0.7669 z m -3.318478,2.8344 c -0.09443,0.4389 0.0299,0.9593 0.418518,1.2113 0.784215,-0.01 1.582182,-0.011 2.359917,0.1522 0.119456,-0.4539 0.482615,-0.756 0.73575,-1.1284 -0.428593,-0.262 -0.918728,-0.3853 -1.403881,-0.4861 -0.426354,-0.1019 -0.874175,-0.055 -1.314449,-0.038 -0.291388,0 -0.536817,0.1681 -0.795855,0.2891 z m -1.53483,0.9645 c -0.334857,0.2003 -0.669713,0.4006 -0.998924,0.6103 -0.336545,0.2187 -0.703374,0.3869 -1.018776,0.6268 -0.02444,0.4564 0.328958,0.8484 0.77167,0.9066 0.399135,-0.2562 0.818802,-0.4781 1.186629,-0.7866 0.409619,-0.4234 0.973823,-0.6593 1.456013,-0.9898 -0.188421,-0.2866 -0.353079,-0.6045 -0.386346,-0.9585 -0.339989,0.1916 -0.675358,0.3911 -1.010215,0.5913 z m -2.322903,1.9629 c -0.12673,0.2712 -0.280914,0.5249 -0.313895,0.825 -0.03421,0.3264 -0.139827,0.7039 0.119961,0.982 0.206547,-0.1235 0.436904,-0.2356 0.578579,-0.4392 0.177994,-0.2423 0.41592,-0.4697 0.491386,-0.7698 -0.161227,-0.056 -0.340046,-0.085 -0.485017,-0.1858 -0.143639,-0.1265 -0.265999,-0.2742 -0.39086,-0.412 z m 7.997325,-2.7265 c -0.243259,0.2469 -0.399792,0.5535 -0.632789,0.8033 -0.176777,0.1733 -0.240712,0.4074 -0.318604,0.6324 0.327401,0.2206 0.726249,0.305 1.098784,0.4305 0.351339,0.1044 0.686319,0.2525 1.023811,0.3905 1.2136,0.6083 2.437201,1.2192 3.687162,1.7462 0.05908,-0.1285 0.124218,-0.2611 0.09063,-0.4026 -0.07448,-0.3802 -0.05768,-0.7642 -0.138465,-1.1408 -0.372441,-0.1681 -0.761235,-0.2925 -1.12998,-0.4543 -0.769926,-0.3638 -1.531081,-0.7414 -2.257151,-1.1739 -0.469903,-0.2884 -1.030028,-0.4293 -1.423398,-0.8313 z m 26.062141,-13.60907 c -0.02806,0.0168 -0.0512,0.0423 -0.06656,0.0841 -0.06669,0.28632 -0.163406,0.56509 -0.358849,0.79243 0.05611,0.13645 0.112167,0.27281 0.174541,0.40551 -0.0516,0.0984 -0.09658,0.19374 -0.14176,0.28869 0.09229,0.18274 0.21085,0.36678 0.200535,0.57685 -0.0052,0.19015 0.117107,0.3379 0.210677,0.49436 0.418854,0.0894 0.827665,0.21878 1.202627,0.41948 0.07663,-0.11341 0.07291,-0.24751 0.05682,-0.37387 -0.03103,-0.19398 0.05308,-0.38014 0.06458,-0.57403 0.02783,-0.19503 -0.138295,-0.35913 -0.078,-0.55668 0.04399,-0.15379 0.05797,-0.31513 -0.05315,-0.44408 -0.15109,-0.1816 -0.155763,-0.41674 -0.201728,-0.63569 -0.227385,-0.15286 -0.427231,-0.37334 -0.692212,-0.46119 -0.09395,-0.008 -0.230661,-0.0618 -0.317687,-0.0161 z m -2.112106,2.36149 c -0.304111,0.25878 -0.548638,0.57456 -0.8392,0.84179 -0.503411,0.43705 -1.044333,0.854 -1.662561,1.11328 -0.356942,0.34095 -0.750066,0.63561 -1.164437,0.90895 -0.205421,0.1112 -0.311945,0.33093 -0.448493,0.51466 -0.45242,0.63599 -0.949843,1.23934 -1.479709,1.80267 -0.114187,0.13587 -0.260297,0.23257 -0.399734,0.34044 0.265818,0.40183 0.416416,0.92361 0.84506,1.18564 0.602499,-0.64079 1.222548,-1.26645 1.811294,-1.91604 0.329146,-0.27375 0.522503,-0.66088 0.820602,-0.95813 0.656589,-0.83453 1.414333,-1.58517 2.092119,-2.39847 0.201812,-0.18828 0.0645,-0.48892 0.178615,-0.71016 0.100416,-0.22994 0.199546,-0.47624 0.246187,-0.72506 z m -24.947892,16.11868 c -0.228454,0.1366 -0.434812,0.3066 -0.610762,0.5098 -0.448356,0.4296 -0.97068,0.9629 -0.936631,1.6308 0.474228,-0.1306 0.986794,0.03 1.446077,-0.1681 0.186544,-0.086 0.275574,-0.2922 0.429631,-0.4183 0.20418,-0.1559 0.379466,-0.3459 0.513596,-0.5621 0.0091,-0.2689 -0.07051,-0.5441 -0.08765,-0.8144 -0.01348,-0.1788 -0.007,-0.3527 -0.03674,-0.5303 -0.247909,0.097 -0.491272,0.2123 -0.717672,0.3523 z m 1.311986,-0.6232 c -0.207083,0.5063 -0.06151,1.0481 0.01402,1.5722 0.313869,0.042 0.624035,0.035 0.940468,0.066 1.104302,0.07 2.165615,0.4383 3.263615,0.555 0.425161,0.043 0.833887,0.2576 1.270467,0.1919 -0.129447,-0.458 -0.362691,-0.9048 -0.67986,-1.2505 -0.894143,-0.1026 -1.756813,-0.3515 -2.629531,-0.5603 -0.60129,-0.2097 -1.241548,-0.2857 -1.835297,-0.5254 -0.105095,-0.048 -0.226338,-0.052 -0.343887,-0.049 z m 25.688783,-14.70932 c -0.06984,0.0418 -0.105141,0.14211 -0.111935,0.22844 -0.141103,0.73026 -0.368514,1.44408 -0.653395,2.13286 0.14869,-0.0213 0.30538,-0.0719 0.457826,-0.0444 0.223774,0.0616 0.418724,0.17441 0.622443,0.27349 0.15926,-0.27364 0.192283,-0.61626 0.375251,-0.87868 0.149373,-0.19071 0.04321,-0.46768 0.216032,-0.6476 0.184262,-0.20341 0.08953,-0.50389 0.136174,-0.75271 -0.286237,-0.1518 -0.599971,-0.27854 -0.927594,-0.32904 -0.04577,-0.01 -0.08316,-0.002 -0.114905,0.0175 z m -28.329854,17.89502 c 0.06324,0.3615 0.180345,0.6994 0.364973,1.0223 0.06434,0.5054 0.417745,0.8974 0.647242,1.338 0.122317,0.1902 0.05689,0.4503 0.19798,0.6294 0.06739,0.1127 0.21245,0.1279 0.321186,0.1818 0.289439,-0.2407 0.59492,-0.5682 0.557944,-0.9711 -0.296892,-0.5532 -0.650117,-1.0728 -0.928222,-1.6373 -0.06725,-0.1977 -0.08069,-0.4191 -0.215524,-0.6019 -0.314005,0.043 -0.631622,0 -0.945577,0.039 z m 27.204576,-14.84258 c -0.171684,0.23865 -0.292155,0.50611 -0.473844,0.74224 -0.216774,0.29114 -0.356158,0.65485 -0.687885,0.85325 0.07453,0.38037 0.257837,0.77212 0.622737,0.97021 0.199931,0.13538 0.485112,0.14333 0.664196,-0.0403 0.303123,-0.31727 0.560057,-0.68335 0.779479,-1.06952 0.232034,-0.43613 0.517836,-0.89603 0.462314,-1.41512 -0.139987,-0.0778 -0.271208,-0.1693 -0.419916,-0.23324 -0.308667,-0.18931 -0.67169,0.0278 -0.947085,0.19251 z m -1.993407,2.21185 c -0.241253,0.14429 -0.448117,0.3519 -0.625834,0.56981 -0.307817,0.19575 -0.511041,0.50955 -0.826503,0.70672 -0.172885,0.13719 -0.309382,0.32101 -0.505923,0.44706 -0.711159,0.45914 -1.45722,0.85984 -2.166839,1.32154 0.04803,0.5066 0.126075,1.0207 0.212944,1.5212 0.21289,-0.2124 0.456064,-0.3742 0.712684,-0.5276 0.582086,-0.3482 1.175565,-0.6914 1.747486,-1.0708 0.182637,-0.1209 0.299376,-0.3235 0.487146,-0.4358 0.662013,-0.4134 1.333167,-0.79733 1.985328,-1.213 0.121672,-0.16598 0.239393,-0.33858 0.420904,-0.44713 -0.444952,-0.21826 -0.834672,-0.57151 -0.972795,-1.05822 -0.168251,0.033 -0.324001,0.0994 -0.468239,0.18682 z m -22.654411,15.08703 c -0.09306,0.3275 -0.256057,0.6375 -0.502806,0.8785 0.591242,0.2498 1.277825,0.2895 1.873529,0.035 0.100229,-0.145 -0.06082,-0.3291 -0.184493,-0.408 -0.374961,-0.2007 -0.766136,-0.4001 -1.186231,-0.5057 z m 6.544675,-2.3421 c -0.158025,0.2899 -0.05842,0.6128 0.01994,0.9143 0.05474,0.2052 0.249687,0.318 0.414618,0.4233 0.315199,0.015 0.626778,-0.1029 0.940784,-0.1462 0.501776,-0.1556 1.028358,-0.1987 1.532646,-0.3643 0.633173,-0.1917 1.309614,-0.07 1.955168,-0.1836 0.681831,-0.1103 1.375865,-0.015 2.052306,0.1068 0.450248,0.028 0.891631,0.1126 1.338038,0.177 0.69527,0.1111 1.396099,-0.1806 1.904534,-0.6377 -0.06611,-0.139 -0.119661,-0.2853 -0.189528,-0.4306 -0.256304,-0.059 -0.529564,0.2655 -0.790559,0.099 -0.149861,-0.1654 -0.02574,-0.3841 -0.0042,-0.5755 -0.401044,-0.2869 -0.916437,-0.2251 -1.382992,-0.2095 -0.370295,0.034 -0.742872,-0.049 -1.10942,-0.01 -0.318936,0.021 -0.62056,0.1417 -0.943202,0.1138 -0.50772,-0.053 -0.999532,0.1474 -1.508529,0.1204 -0.476562,0.013 -0.954358,0.01 -1.4195,-0.086 -0.343794,-0.092 -0.681737,0.068 -1.025668,0.061 -0.167681,-0.01 -0.271503,0.1286 -0.376666,0.2369 0.03852,0.1639 0.09586,0.3166 0.114366,0.4754 0.02107,0.1489 -0.154142,0.2111 -0.273029,0.1971 -0.435261,0 -0.826436,-0.2026 -1.247807,-0.2819 z m 11.99101,-5.4549 c 0.006,0.1663 0.01208,0.3327 -0.0082,0.4977 -0.03672,0.3365 0.04037,0.6643 0.08743,0.9845 0.151656,-0.073 0.299306,-0.1673 0.464308,-0.2182 0.629331,-0.1555 1.13546,-0.6022 1.709762,-0.8781 0.239283,-0.1256 0.523024,-0.1343 0.753371,-0.2891 0.330502,-0.172 0.628652,-0.4691 1.018906,-0.4986 0.235091,-0.047 0.418128,-0.2245 0.658252,-0.2492 0.341502,-0.068 0.738246,-0.2291 0.831091,-0.5996 -0.272074,-0.3981 -0.255002,-0.9521 -0.629785,-1.2804 -0.445444,0.1219 -0.781248,0.4556 -1.193016,0.6622 -0.275397,0.1648 -0.610649,0.1867 -0.878551,0.364 -0.699568,0.4358 -1.425926,0.8411 -2.142018,1.2636 -0.201414,0.1321 -0.46171,0.1231 -0.672004,0.2404 z m -11.857414,7.3549 c -0.143038,0.315 -0.356065,0.6124 -0.361582,0.9726 0.01846,0.2014 0.02564,0.4265 0.140457,0.6043 0.235849,0.3943 0.42652,0.8836 0.890286,1.0481 0.487667,0.091 0.977887,0.129 1.473225,0.1047 0.953029,0.016 1.909899,0 2.862928,0.013 0.368966,-0.01 0.722723,0.1286 1.089177,0.1304 0.599051,0.05 1.204446,0.01 1.806144,-0.035 0.250181,-0.022 0.511646,-0.068 0.730711,-0.1991 0.470566,-0.222 0.636441,-0.7545 1.038337,-1.063 0.289507,-0.411 0.465389,-0.9411 0.326029,-1.444 -0.09348,-0.2416 -0.265774,-0.4444 -0.365522,-0.6822 -0.02234,-0.1227 0.08159,-0.2188 0.125538,-0.3301 -0.363107,0.3023 -0.840946,0.3416 -1.281324,0.4009 -0.588994,-0.047 -1.166713,-0.1605 -1.755706,-0.2075 -0.622715,-0.1035 -1.259184,-0.2157 -1.89222,-0.109 -0.661819,0.1153 -1.358272,-0.012 -2.010222,0.1909 -0.462987,0.1494 -0.957091,0.19 -1.416331,0.3457 -0.462893,0.107 -0.93575,0.1688 -1.39993,0.2594 z m 17.344343,-9.9311 c 0.189433,0.473 0.279953,1.0223 0.648383,1.3967 0.554087,-0.026 1.07287,0.1741 1.619379,0.2212 0.358074,-0.3248 0.741295,-0.6218 1.131959,-0.9064 -0.525919,-0.4673 -1.215976,-0.6834 -1.902516,-0.7656 -0.498907,-0.1096 -1.001824,-0.013 -1.497205,0.054 z m -5.586211,5.5503 c -0.02059,0.4202 -0.16504,0.8465 -0.04556,1.2594 0.94338,-0.2413 1.866843,-0.5302 2.801453,-0.7577 0.733316,-0.2516 1.493951,-0.4006 2.267019,-0.4721 0.04656,-0.121 0.154183,-0.2537 0.08186,-0.3888 -0.142047,-0.3654 -0.139002,-0.7581 -0.18726,-1.1372 -0.136387,-0.029 -0.281204,-0.1292 -0.415155,-0.041 -0.255393,0.1271 -0.480503,0.3049 -0.767106,0.3656 -0.274085,0.053 -0.503301,0.2241 -0.751922,0.3483 -0.679446,0.228 -1.370185,0.4371 -2.075766,0.5787 -0.301787,0.078 -0.626777,0.1029 -0.907155,0.2451 z m -11.429689,7.3881 c -0.05802,0.315 -0.345838,0.4448 -0.588704,0.607 -0.102895,0.1548 -0.170585,0.34 -0.185888,0.5275 0.130901,0.3042 0.336914,0.5634 0.492849,0.8525 0.103582,0.159 0.170837,0.3567 0.347047,0.4382 0.353715,0.1794 0.747539,0.2838 1.116284,0.4456 0.281255,0.1293 0.602661,0.141 0.911549,0.1602 0.696589,0.042 1.391815,0.1959 2.091053,0.1431 0.449055,-0.031 0.906746,0.01 1.347167,-0.092 0.788182,-0.1741 1.606298,-0.2554 2.365927,-0.5482 0.573086,-0.2069 1.033862,-0.63 1.526056,-0.9721 0.334478,-0.2933 0.406314,-0.7699 0.400685,-1.1914 -0.28989,-0.2005 -0.636153,-0.3248 -0.872182,-0.5916 -0.355637,0.201 -0.695975,0.4419 -1.111317,0.4862 -0.723038,0.084 -1.461022,0.1005 -2.19014,0.061 -0.353936,-0.01 -0.687682,-0.141 -1.040434,-0.1341 -0.880476,-0.01 -1.766026,0 -2.646554,-0.01 -0.660354,0 -1.338302,0.036 -1.96335,-0.1853 z m 20.52245,-11.7215 c -0.277847,0.2175 -0.592238,0.388 -0.810144,0.663 0.142229,0.2379 0.303235,0.4644 0.356653,0.7385 0.05707,0.3227 0.326902,0.5608 0.345191,0.8897 0.01225,0.1626 0.114642,0.3054 0.161925,0.4555 0.03985,0.1377 -0.0068,0.3439 0.17833,0.3692 0.387565,0.1081 0.851608,0.1025 1.1747,-0.1671 -0.138533,-0.2317 -0.315799,-0.457 -0.356653,-0.7385 -0.02103,-0.1914 -0.124601,-0.3504 -0.205649,-0.5143 -0.09855,-0.179 -0.0595,-0.3979 -0.176829,-0.5657 -0.218293,-0.3792 -0.442902,-0.7547 -0.667511,-1.1303 z m -3.691234,2.879 c -0.01068,0.4652 0.137495,0.9119 0.265707,1.3536 0.385052,0.1181 0.766315,0.2725 1.146343,0.4107 0.272526,0.1004 0.49361,0.2996 0.763625,0.4101 0.240532,-0.2799 0.521089,-0.5496 0.661656,-0.8971 -0.12981,-0.2029 -0.252015,-0.4356 -0.466981,-0.5535 -0.693499,-0.4776 -1.528569,-0.7514 -2.37035,-0.7238 z m -16.953473,12.1192 c -0.245327,0.1724 -0.01949,0.5216 -0.196158,0.7377 -0.0716,0.136 -0.207857,0.235 -0.245692,0.3849 0.05227,0.1726 0.143379,0.3392 0.277015,0.4631 0.252335,0.223 0.508419,0.4523 0.81964,0.589 0.391268,0.157 0.709711,0.4763 1.144929,0.522 0.493967,0.044 0.900045,0.354 1.355045,0.5322 0.370022,0.1356 0.743792,0.2775 1.126374,0.3631 0.370116,0.093 0.701885,-0.1479 1.05468,-0.1974 0.494147,-0.083 0.973398,-0.2337 1.432681,-0.432 0.293875,-0.1338 0.629332,-0.1554 0.907241,-0.3301 0.411967,-0.2348 0.779793,-0.5433 1.110669,-0.8852 0.252812,-0.2025 0.535693,-0.3973 0.690176,-0.6931 0.180455,-0.2524 0.0946,-0.5665 0.06996,-0.8492 -0.271155,-0.1693 -0.464648,-0.436 -0.63187,-0.7013 8.7e-5,-0.085 0.0465,-0.1638 0.0704,-0.2376 -0.97023,0.6654 -2.169881,0.7624 -3.2871,0.9972 -0.479209,0.1081 -0.970664,0.054 -1.454762,0.097 -0.494104,0.041 -0.978022,-0.044 -1.468243,-0.082 -0.412643,-0.051 -0.829126,-0.065 -1.245568,-0.1219 -0.297605,-0.043 -0.541212,-0.2371 -0.832558,-0.2838 -0.233916,0.021 -0.494061,0 -0.696861,0.1278 z m 20.964711,-11.3656 c -0.03972,0.6866 -0.07201,1.3857 0.10592,2.0526 0.414014,-0.018 0.579506,-0.4235 0.748968,-0.7369 0.219516,-0.4286 0.207713,-0.9314 0.240915,-1.4017 -0.356585,0.086 -0.728114,0.104 -1.095803,0.086 z m -0.905757,1.0431 c -0.221756,0.2686 -0.446024,0.5472 -0.706526,0.7794 0.343179,0.5596 0.676346,1.1167 1.000678,1.6874 0.37698,-0.208 0.810716,-0.1363 1.216044,-0.2259 -0.179603,-0.3429 -0.394244,-0.6734 -0.586368,-1.0088 -0.116052,-0.1941 -0.219582,-0.3956 -0.396995,-0.5359 -0.229855,-0.1855 -0.364544,-0.4533 -0.526833,-0.6962 z m -19.741219,13.1556 c -0.09232,0.055 -0.176429,0.1242 -0.238341,0.2124 -0.04655,0.1638 0.05323,0.359 -0.04951,0.514 -0.117566,0.1729 -0.231898,0.3511 -0.329709,0.5286 0.27102,0.2542 0.661189,0.3099 0.992423,0.4516 0.475106,0.1408 0.892415,0.4266 1.327361,0.6423 0.832609,0.2839 1.68655,0.504 2.555606,0.6215 0.30268,0.023 0.571818,-0.138 0.853337,-0.2214 0.290494,-0.097 0.597994,-0.094 0.890753,-0.1588 0.653134,-0.1867 1.196824,-0.6133 1.824801,-0.8704 0.368055,-0.1945 0.718658,-0.4182 1.069163,-0.6278 0.240208,-0.1099 0.343325,-0.4348 0.224804,-0.6614 -0.119566,-0.3278 -0.33682,-0.6058 -0.556583,-0.8738 -0.464092,0.2613 -0.858939,0.6667 -1.375539,0.8402 -0.669355,0.1453 -1.272732,0.5147 -1.959493,0.6026 -0.451568,0.041 -0.866033,0.3564 -1.327334,0.2245 -0.67645,-0.1649 -1.335212,-0.3997 -1.942634,-0.7333 -0.30492,-0.183 -0.677676,-0.1385 -0.990132,-0.2915 -0.235014,-0.08 -0.427408,-0.2458 -0.667448,-0.3061 -0.103492,0.019 -0.206587,0.056 -0.299933,0.1095 z m 20.327558,-10.3281 c -0.01209,0.5765 0.144725,1.1371 0.281529,1.6927 0.03605,0.1313 0.103444,0.244 0.195863,0.3417 0.102723,0.015 0.233917,-0.021 0.279203,-0.1157 0.319839,-0.6161 0.390953,-1.364 0.174237,-2.0247 -0.311443,0.033 -0.624172,0.05 -0.930684,0.1062 z m -20.066194,12.7614 c -0.05984,0.037 -0.110439,0.084 -0.140299,0.1562 -0.06627,0.1165 -0.125401,0.245 -0.178122,0.37 0.636333,0.1972 0.842949,0.8979 1.184929,1.3987 0.279662,0.3681 0.08131,0.9032 0.385956,1.2563 0.567483,0.2384 1.1992,0.2006 1.79441,0.2865 0.333881,0.047 0.649344,-0.1504 0.990761,-0.1337 0.472772,0.023 0.945492,0.046 1.422054,0.033 0.395237,-0.01 0.776857,-0.1077 1.160947,-0.1759 0.276537,-0.106 0.535822,-0.2692 0.76873,-0.4481 0.349679,-0.481 0.242977,-1.1141 0.425118,-1.6478 0.09918,-0.2463 0.315776,-0.4098 0.466171,-0.6272 0.05519,-0.092 0.135365,-0.2 0.07172,-0.3064 -0.0948,-0.1727 -0.273484,-0.2868 -0.4021,-0.4308 0.126306,-0.087 0.248919,-0.1663 0.376766,-0.2509 -0.205049,-0.073 -0.391865,0.1831 -0.587035,0.2404 -0.777172,0.3203 -1.464905,0.918 -2.341523,0.9584 -0.507805,0.032 -0.944836,0.3952 -1.463797,0.3231 -0.750271,-0.1036 -1.495476,-0.2697 -2.210577,-0.5134 -0.513937,-0.092 -0.937463,-0.4166 -1.402426,-0.6399 -0.0978,0.058 -0.220772,0.092 -0.3205,0.1532 z m -4.69272,2.8847 c -0.231302,0.1383 -0.45263,0.2928 -0.659258,0.4641 0.235894,0.3518 0.40294,0.7448 0.672634,1.0679 0.431114,0.2946 0.858429,0.5828 1.244401,0.9298 0.274678,0.3456 0.630772,0.6 0.899194,0.9494 0.07798,-0.3101 0.128501,-0.6377 0.280215,-0.924 0.165561,-0.3199 0.266157,-0.6774 0.48293,-0.9686 0.291807,-0.2083 0.614509,-0.3791 0.927459,-0.5663 0.512111,-0.2946 1.112288,-0.2573 1.672771,-0.3716 -0.10719,-0.2502 -0.228174,-0.5094 -0.242756,-0.7895 -0.0085,-0.1989 -0.0282,-0.4166 -0.155539,-0.5869 -0.237131,-0.368 -0.404074,-0.8035 -0.76515,-1.0804 -0.19052,0.2071 -0.414549,0.4009 -0.508749,0.6697 -0.04001,0.075 -0.04527,0.18 -0.122889,0.2349 -0.321501,0.031 -0.630304,-0.073 -0.947962,-0.079 -0.550393,0.032 -1.103382,0.1585 -1.610225,0.3767 -0.383363,0.2293 -0.785732,0.4361 -1.168669,0.671 z m -0.922484,0.9192 c -0.139009,0.1938 -0.286994,0.401 -0.321116,0.6424 -0.1374,0.779 -0.02102,1.5846 0.148004,2.3503 l 0.482889,0.8074 c 0.443496,0.3722 1.020942,0.6557 1.616331,0.614 0.294087,-0.091 0.589308,-0.1656 0.874668,-0.2852 0.100143,-0.06 0.270277,-0.1022 0.25311,-0.2446 -0.0084,-0.2414 0.0057,-0.4878 -0.05777,-0.7218 -0.298267,-0.4845 -0.737959,-0.8503 -1.125123,-1.2561 -0.331012,-0.3119 -0.690851,-0.5726 -1.065718,-0.8157 -0.398626,-0.2545 -0.539267,-0.7312 -0.805173,-1.0906 z m 4.747288,0.5705 c -0.126011,0.075 -0.246792,0.1592 -0.373537,0.235 -0.326908,0.1781 -0.388552,0.5723 -0.5516,0.8822 -0.290963,0.565 -0.298115,1.2066 -0.330261,1.8207 -0.0015,0.1537 0.01956,0.3026 0.06941,0.4428 0.293501,0.2919 0.688517,0.455 1.049675,0.6469 0.566299,0.2222 1.17407,0.258 1.76933,0.344 0.55907,0 1.103331,-0.1586 1.651346,-0.2653 0.173727,-0.036 0.323017,-0.1419 0.473233,-0.2318 -0.14492,-0.1002 -0.302409,-0.193 -0.429785,-0.3208 -0.461958,-0.5735 -0.669805,-1.2904 -1.075436,-1.8976 -0.269659,-0.3656 -0.317779,-0.8297 -0.502271,-1.2377 -0.130944,-0.2615 -0.06174,-0.5579 -0.121417,-0.8282 -0.317753,0.037 -0.635455,0.074 -0.958232,0.1313 -0.241594,0.049 -0.457735,0.1584 -0.667993,0.2826 z m 2.198221,-0.6794 c -0.06926,0.2962 -0.129736,0.6214 -0.01259,0.9167 0.162019,0.413 0.245184,0.8646 0.502272,1.2377 0.21721,0.3205 0.371778,0.6784 0.542606,1.0351 0.193457,0.3093 0.330476,0.6947 0.662851,0.8952 0.296149,0.1968 0.533413,0.4799 0.83582,0.6729 0.208787,0.036 0.41392,0.024 0.621618,0 0.469509,-0.3659 0.705469,-0.9234 1.032572,-1.3994 0.169172,-0.2287 0.265884,-0.5075 0.427562,-0.7486 0.181731,-0.2787 0.356021,-0.5699 0.462782,-0.8887 0.241026,-0.62 0.608331,-1.2136 0.68182,-1.8864 -0.933511,0.3289 -1.929118,0.355 -2.900787,0.2649 -0.380165,-0.053 -0.72194,0.1853 -1.098358,0.1385 -0.585255,-0.083 -1.194396,-0.051 -1.758175,-0.2401 z m 7.145539,-2.7015 c -0.301873,0.1631 -0.277167,0.5312 -0.333907,0.82 -0.03681,0.3789 -0.129863,0.749 -0.246722,1.1078 -0.141624,0.2036 -0.366991,0.381 -0.329836,0.6562 0.34507,0.065 0.676355,0.2073 1.040297,0.2191 0.320129,0.038 0.67036,0 0.961528,0.1727 0.318767,0.1493 0.437057,0.5034 0.628038,0.7801 0.259561,0.4056 0.348939,0.896 0.378284,1.3714 0.320335,-0.2033 0.658635,-0.3765 0.968704,-0.5969 0.539585,-0.4334 0.807028,-1.0945 1.180549,-1.6492 0.254286,-0.2711 0.401113,-0.6223 0.519156,-0.9649 -0.08493,-0.085 -0.169868,-0.1704 -0.272348,-0.228 -0.766043,-0.4426 -1.577227,-0.8327 -2.460087,-0.9591 -0.443938,-0.032 -0.890481,-0.011 -1.31715,0.1 -0.172109,-0.3304 -0.449443,-0.581 -0.716711,-0.829 z m -0.975933,3.0926 c -0.03364,0.02 -0.06217,0.052 -0.07812,0.1038 -0.352633,0.8313 -0.632806,1.7126 -1.157905,2.4687 -0.253459,0.5423 -0.613092,1.0209 -0.917764,1.5345 0.134968,0.098 0.287471,0.1681 0.447463,0.2082 0.437594,0.1207 0.875188,0.2414 1.325478,0.2271 1.083012,0.092 2.176609,-0.2396 3.055517,-0.8587 -0.0031,-0.474 -0.07496,-0.9494 -0.06802,-1.4209 0.01196,-0.4915 -0.07861,-0.9982 -0.343148,-1.4263 -0.138533,-0.2316 -0.259431,-0.5332 -0.555758,-0.6025 -0.435124,-0.088 -0.906746,-0.01 -1.329216,-0.1906 -0.107811,-0.031 -0.27508,-0.099 -0.378623,-0.043 z m 6.093117,-0.774 c -0.09785,0.2201 -0.195757,0.44 -0.344875,0.6311 -0.379645,0.4735 -0.590559,1.0586 -0.987703,1.5171 -0.423551,0.5421 -1.071838,0.8364 -1.66635,1.1496 -0.02923,0.3063 3.32e-4,0.6115 0.05622,0.9181 0.437457,0.2057 0.881174,0.4077 1.350064,0.5097 0.312634,0.025 0.604295,-0.1405 0.910766,-0.1538 l 0.406834,-0.2433 c 0.0179,-0.2827 0.280777,-0.4399 0.448672,-0.6423 0.236486,-0.2439 0.238463,-0.6101 0.332756,-0.9213 0.143302,-0.5276 0.140363,-1.0867 0.07986,-1.6283 -0.04314,-0.4416 -0.344093,-0.7885 -0.586244,-1.1366 z" fill="#000000" stroke="#000000" stroke-width="0.00683716"></path></svg>