<svg xmlns="http://www.w3.org/2000/svg" xmlns:xlink="http://www.w3.org/1999/xlink" version="1.1" x="0px" y="0px" viewBox="0 0 100 100" enable-background="new 0 0 100 100" xml:space="preserve"><g><path d="M97.889,40.494c2.627-2.504,2.732-5.666,2.377-7.831c-0.521-3.188-2.17-5.467-4.771-6.71   c-0.084-0.04-0.168-0.081-0.254-0.119c0.086,0.038,0.17,0.079,0.254,0.119c0.697-4.554-1.52-8.902-5.551-10.286   c-0.104-0.037-0.209-0.067-0.312-0.098c-0.465-0.577-0.951-1.142-1.459-1.693c-0.006-0.182-0.018-0.362-0.035-0.541   c-0.248-2.451-1.58-4.546-3.957-6.227c-1.801-1.274-3.662-1.919-5.537-1.919c-0.816,0-1.627,0.122-2.428,0.364   c-0.293-0.123-0.588-0.242-0.885-0.357c-0.977-1.773-2.512-3.161-4.482-3.84c-2.625-0.902-5.459-0.353-7.77,1.239   c-0.215-0.014-0.43-0.022-0.645-0.032C60.514,0.568,58.189,0,56.17,0c-0.596,0-1.223,0.051-1.859,0.15   c-1.553,0.243-2.893,0.728-4.01,1.443c-0.448-0.326-0.94-0.587-1.478-0.771c-2.501-0.86-5.326,0.125-7.534,2.316   c-0.192-0.091-0.388-0.175-0.593-0.246c-3.383-1.162-7.356,1.045-9.597,5.056c-3.831-1-8.283,2.132-10.112,7.209   c-0.025,0.069-0.046,0.138-0.071,0.207c-3.369,0.134-6.847,3.05-8.41,7.389c-0.543,1.507-0.793,3.021-0.786,4.447   c-2.622,0.985-5.048,3.523-6.279,6.946c-1,2.774-1.015,5.576-0.232,7.801c-1.694,1.3-3.145,3.264-4.009,5.664   c-1.367,3.801-0.891,7.648,0.956,10.001C1.79,58.262,1.467,58.957,1.2,59.695c-1.775,4.936-0.443,9.954,2.963,11.668   c0.086,0.344,0.174,0.686,0.267,1.024c-1.383,4.938,0.288,9.745,3.969,11.01c0.424,0.146,0.855,0.234,1.292,0.277   c-0.507,4.196,1.174,7.948,4.362,9.045c1.295,0.445,2.675,0.393,4.014-0.061c0.118,0.316,0.266,0.623,0.446,0.918   c2.03,3.31,7.28,3.916,11.993,1.499c0.117,0.688,0.354,1.347,0.727,1.955c2.136,3.479,7.834,3.971,12.724,1.099   c1.013-0.595,1.911-1.289,2.682-2.046c2.577,2.425,7.503,2.502,11.804-0.026c1.861-1.092,3.336-2.516,4.332-4.049   c2.727,1.261,6.648,0.933,10.154-1.129c3.291-1.932,5.375-4.895,5.738-7.686c1.744-0.492,3.508-1.436,5.076-2.812   c3.684-3.228,5.072-7.766,3.572-10.888c0.945-0.482,1.869-1.094,2.736-1.839c3.303-2.837,4.805-6.725,4.07-9.754   c2.338-1.175,4.424-3.591,5.502-6.732C101.076,46.947,100.271,42.696,97.889,40.494z M43.823,18.819   c0.277-0.373,0.812-0.456,1.194-0.186c0.463,0.326,0.903,0.676,1.319,1.047c1.76,1.566,3.094,3.493,3.82,5.553   c0.81,2.294,0.746,4.482-0.165,5.711c-0.167,0.226-0.429,0.346-0.693,0.346c-0.174,0-0.351-0.051-0.501-0.159   c-0.383-0.271-0.469-0.793-0.193-1.167c0.103-0.136,0.188-0.316,0.256-0.531c0.25-0.792,0.234-2.08-0.32-3.655   c-0.63-1.783-1.786-3.457-3.32-4.828c-0.307-0.275-0.626-0.536-0.962-0.784c-0.08-0.059-0.161-0.121-0.243-0.179   C43.632,19.717,43.546,19.194,43.823,18.819z M36.95,36.54c-0.515,0.022-1.033,0.072-1.55,0.152   c-0.466,0.073-0.905-0.237-0.979-0.694c-0.075-0.456,0.243-0.884,0.71-0.958c2.942-0.459,5.931-0.063,8.41,1.117   c2.232,1.062,3.77,2.653,4.016,4.153c0.075,0.455-0.243,0.884-0.71,0.958c-0.046,0.006-0.091,0.01-0.136,0.01   c-0.413,0-0.776-0.293-0.844-0.705c-0.028-0.166-0.098-0.353-0.204-0.55c-0.396-0.732-1.34-1.633-2.872-2.362   C41.056,36.835,39.024,36.451,36.95,36.54z M52.744,50.442c-0.277,0.374-0.811,0.457-1.195,0.188   c-0.146-0.104-0.324-0.19-0.531-0.254c-1.81-0.57-5.717,0.4-8.694,3.562c-0.341,0.363-0.672,0.755-0.984,1.178   c-0.167,0.227-0.429,0.346-0.694,0.346c-0.174,0-0.35-0.052-0.501-0.158c-0.383-0.271-0.469-0.793-0.191-1.167   c4.024-5.433,10.249-6.524,12.599-4.86C52.936,49.546,53.021,50.068,52.744,50.442z M62.408,53.306   c-0.17,0.027-0.363,0.095-0.564,0.199c-0.75,0.388-1.67,1.309-2.416,2.807c-0.846,1.696-1.24,3.68-1.148,5.709   c0.023,0.502,0.072,1.008,0.156,1.513c0.074,0.455-0.242,0.884-0.711,0.959c-0.045,0.007-0.09,0.009-0.135,0.009   c-0.414,0-0.777-0.292-0.844-0.706c-0.473-2.874-0.066-5.793,1.141-8.216c1.09-2.182,2.717-3.684,4.252-3.925   c0.467-0.072,0.904,0.239,0.979,0.694C63.193,52.805,62.875,53.233,62.408,53.306z M63.193,20.084   c-0.102,0.243-0.209,0.483-0.326,0.718c-1.086,2.181-2.715,3.684-4.248,3.923c-0.045,0.008-0.092,0.011-0.137,0.011   c-0.412,0-0.777-0.294-0.844-0.705c-0.074-0.456,0.244-0.884,0.709-0.958c0.172-0.027,0.363-0.094,0.566-0.199   c0.748-0.387,1.67-1.309,2.416-2.806c0.143-0.288,0.271-0.584,0.391-0.888c0.572-1.482,0.832-3.136,0.756-4.82   c-0.021-0.503-0.074-1.009-0.154-1.513c-0.076-0.456,0.242-0.884,0.709-0.958c0.465-0.076,0.904,0.237,0.979,0.694   C64.436,15.182,64.145,17.813,63.193,20.084z M69.105,26.206c0.277-0.375,0.812-0.458,1.197-0.188   c0.139,0.098,0.322,0.183,0.543,0.249c0.809,0.245,2.129,0.229,3.738-0.314c1.033-0.347,2.025-0.86,2.949-1.509   c0.713-0.502,1.383-1.083,1.994-1.735c0.346-0.371,0.678-0.763,0.984-1.177c0.277-0.374,0.812-0.458,1.195-0.187   c0.383,0.271,0.467,0.793,0.189,1.167c-1.225,1.653-2.768,3.021-4.48,3.996c-0.73,0.417-1.49,0.762-2.273,1.025   c-1.094,0.369-2.166,0.552-3.127,0.552c-1.096,0.001-2.047-0.239-2.717-0.713C68.916,27.102,68.83,26.578,69.105,26.206z    M77.48,58.897c-0.166,0.226-0.428,0.345-0.695,0.345c-0.172,0-0.348-0.051-0.5-0.158c-5.561-3.934-6.676-10.015-4.975-12.312   c0.277-0.374,0.814-0.457,1.197-0.188c0.383,0.271,0.469,0.793,0.189,1.168c-0.105,0.144-0.191,0.318-0.258,0.521   c-0.584,1.767,0.408,5.585,3.645,8.494c0.373,0.333,0.773,0.656,1.205,0.963C77.672,58,77.758,58.524,77.48,58.897z M88.855,42.413   c-0.125,0.133-0.295,0.231-0.494,0.263c-0.348,0.054-0.695,0.095-1.045,0.125c-0.451,0.04-0.902,0.062-1.354,0.062   c-2.131,0-4.205-0.443-6.01-1.303c-0.195-0.093-0.385-0.192-0.57-0.294c-1.92-1.049-3.223-2.491-3.447-3.859   c-0.072-0.457,0.244-0.885,0.711-0.958c0.467-0.073,0.904,0.238,0.979,0.694c0.029,0.167,0.098,0.354,0.205,0.552   c0.396,0.732,1.34,1.633,2.873,2.362c1.734,0.826,3.766,1.21,5.842,1.121c0.512-0.022,1.029-0.072,1.547-0.153   c0.252-0.039,0.492,0.036,0.676,0.182c0.156,0.126,0.27,0.302,0.305,0.512C89.115,41.98,89.025,42.231,88.855,42.413z"></path></g></svg>