<svg xmlns="http://www.w3.org/2000/svg" xmlns:xlink="http://www.w3.org/1999/xlink" version="1.1" x="0px" y="0px" viewBox="0 0 100 100" enable-background="new 0 0 100 100" xml:space="preserve"><g><path d="M35.474,6.271"></path><path d="M35.484,6.271c-0.003,0-0.006,0-0.01,0.001c-0.005,0-0.011,0.001-0.016,0.002c0.005,0,0.011-0.001,0.016-0.002   C35.478,6.271,35.48,6.271,35.484,6.271z"></path><g><path d="M99.905,37.995c-0.517-8.724-3.796-17.76-8.999-24.79C85.295,5.622,78.289,1.446,71.182,1.446    c-0.447,0-0.9,0.017-1.347,0.05c-3.609,0.27-6.609,1.179-9.091,2.415c-8.643,1.191-10.741,2.566-10.741,2.566    s-3.177-0.773-11.19-0.324c-1.799-0.593-3.688-0.9-5.645-0.9c-0.786,0-1.595,0.048-2.404,0.145    c-4.325,0.513-8.328,2.288-11.814,5.172C6.892,16.877-2.823,31.11,0.75,55.867c3.62,25.083,35.328,36.62,50.715,40.023    c4.372,1.675,7.293,2.459,7.533,2.523l0.525,0.139l0.489-0.236c0.431-0.207,10.677-5.197,20.788-15.107    c5.959-5.84,10.611-12.176,13.83-18.832C98.672,56.019,100.447,47.143,99.905,37.995z M74.295,85.15    c-6.963,5.889-13.306,9.353-15.073,10.27c-2.414-0.701-12.709-3.91-23.304-10.419C24.902,78.234,11.331,66.412,9.227,48.522    C7.12,30.612,15.412,10.185,31.111,8.32c0.694-0.083,1.386-0.124,2.057-0.124c4.6,0,8.628,1.912,11.972,5.684    c2.133,2.406,3.31,4.854,3.654,5.631c-8.628,2.045-14.454,11.366-12.771,25.75C37.821,60.617,57.348,77.01,57.348,77.01    s15.215-20.457,13.417-35.813c-1.72-14.69-9.841-22.428-18.939-22.09c0.668-2.361,4.568-13.652,18.229-14.675    c0.373-0.028,0.752-0.042,1.127-0.042c6.15,0,12.316,3.752,17.359,10.566c4.871,6.583,7.714,15.061,8.427,23.213    C98.369,54.19,90.369,70.908,74.295,85.15z"></path></g></g></svg>